<?xml version="1.0" standalone="no"?>
<!DOCTYPE svg PUBLIC "-//W3C//DTD SVG 20010904//EN"
 "http://www.w3.org/TR/2001/REC-SVG-20010904/DTD/svg10.dtd">
<svg version="1.0" xmlns="http://www.w3.org/2000/svg"
 width="1024.000000pt" height="1024.000000pt" viewBox="0 0 1024.000000 1024.000000"
 preserveAspectRatio="xMidYMid meet">
<metadata>
Created by potrace 1.14, written by Peter Selinger 2001-2017
</metadata>
<g transform="translate(0.000000,1024.000000) scale(0.100000,-0.100000)"
fill="#000000" stroke="none">
<path d="M0 5120 l0 -5120 1479 0 c1399 0 1479 1 1485 18 3 9 15 44 27 77 19
51 22 83 24 212 l1 152 43 48 c57 65 56 63 95 135 37 67 76 203 76 262 0 22 7
43 19 55 50 50 276 130 414 147 49 6 51 5 32 -10 -11 -8 -24 -15 -30 -16 -5 0
-3 5 5 10 24 16 -4 11 -46 -7 -22 -9 -43 -17 -48 -17 -5 -1 -11 -7 -14 -13 -5
-17 20 -17 37 0 11 9 12 9 7 0 -7 -12 29 -11 71 2 7 2 15 0 18 -6 4 -5 21 -7
38 -4 52 10 294 -13 327 -30 16 -8 40 -15 54 -15 13 0 31 -6 38 -13 7 -6 30
-21 50 -32 21 -11 38 -23 38 -27 0 -5 5 -8 10 -8 6 0 24 -10 40 -21 21 -16 36
-20 57 -15 18 4 23 3 14 -3 -7 -5 -10 -14 -6 -20 5 -8 11 -9 19 -2 9 8 22 2
47 -19 19 -16 29 -29 22 -30 -7 0 -21 10 -33 22 -11 12 -20 17 -20 10 0 -17
47 -45 65 -39 8 4 17 2 20 -3 4 -6 0 -10 -7 -10 -8 0 -6 -5 5 -11 9 -6 15 -14
12 -20 -3 -5 0 -6 8 -3 32 12 228 -151 227 -189 -1 -7 -10 -1 -20 12 -12 14
-26 21 -36 17 -18 -7 -9 -26 12 -26 9 0 12 -5 8 -12 -4 -6 -3 -8 4 -4 6 3 22
1 36 -6 l26 -11 -42 -26 c-65 -38 -77 -58 -78 -123 0 -34 -4 -58 -11 -58 -5 0
-7 -5 -4 -10 4 -6 11 -7 17 -4 7 4 8 2 4 -4 -12 -20 -45 4 -39 28 4 16 2 19
-12 13 -12 -4 -16 -3 -11 5 3 6 -2 13 -13 17 -11 3 -27 17 -36 31 -9 14 -22
23 -30 20 -7 -2 -21 4 -31 15 -9 10 -24 19 -33 19 -9 0 -25 6 -36 13 -36 24
-113 48 -182 58 -87 11 -193 39 -193 50 0 5 8 9 17 9 29 0 6 12 -29 15 -17 1
-34 9 -36 16 -3 12 -2 12 6 1 7 -11 10 -11 15 2 4 9 2 16 -4 16 -6 0 -7 4 -4
10 6 10 -49 70 -64 70 -14 0 -28 -23 -35 -56 -7 -30 -7 -30 -58 -24 -29 4 -54
12 -56 18 -2 6 -18 16 -37 22 -30 10 -36 9 -54 -9 -12 -12 -21 -26 -21 -31 0
-6 -3 -9 -7 -9 -20 3 -26 -2 -13 -11 11 -8 7 -9 -15 -4 -23 4 -26 3 -15 -5 20
-14 7 -14 -24 0 -15 7 -34 33 -52 72 -25 56 -28 59 -40 42 -18 -24 -18 -56 1
-91 8 -16 15 -22 15 -14 0 13 2 13 9 0 6 -8 8 -17 6 -21 -4 -6 11 -11 150 -50
44 -12 86 -27 94 -33 9 -7 89 -11 235 -12 205 -2 226 -3 291 -26 80 -27 155
-64 155 -77 0 -4 11 -14 25 -21 14 -8 37 -29 52 -48 22 -29 24 -36 11 -43 -9
-5 -15 -25 -16 -49 -2 -34 -8 -47 -37 -73 -19 -17 -35 -37 -35 -44 0 -7 -7
-13 -15 -13 -15 0 -62 -80 -48 -80 5 0 0 -7 -10 -14 -15 -12 -5 -13 72 -14 84
0 90 1 94 21 4 22 4 22 6 0 1 -22 5 -23 71 -23 49 0 70 4 70 13 0 8 3 8 9 -2
8 -13 12 -13 27 0 11 9 15 9 10 2 -5 -9 -1 -13 12 -13 36 0 16 89 -30 134 -33
31 -78 94 -78 108 0 5 12 2 28 -5 62 -32 212 -14 228 27 4 11 10 12 22 6 75
-43 279 -76 372 -61 30 5 57 7 60 5 4 -5 5 -27 8 -151 l2 -63 360 0 c260 0
360 3 360 11 0 8 4 8 14 0 8 -7 27 -11 43 -9 27 3 28 5 27 60 -1 49 -5 60 -30
82 -18 15 -57 32 -101 42 -67 16 -97 34 -56 34 20 0 85 69 77 82 -3 5 0 16 7
24 9 12 9 23 -1 54 -7 22 -17 40 -21 40 -4 0 -14 6 -21 13 -14 14 -72 37 -94
37 -27 0 -2 -27 35 -38 56 -17 75 -43 68 -93 -9 -65 -48 -96 -130 -105 -23 -2
-36 0 -32 6 3 6 1 10 -5 10 -6 0 -28 11 -50 25 -35 22 -39 23 -43 7 -4 -16 -5
-16 -6 1 -1 10 -9 17 -20 17 -11 0 -22 4 -25 9 -3 4 -37 11 -76 15 -38 4 -70
12 -70 18 0 7 -23 8 -67 4 -168 -17 -217 -23 -208 -24 6 -1 3 -7 -5 -13 -11
-7 -3 -9 30 -5 43 5 43 5 11 -5 -38 -12 -63 -6 -56 14 5 11 -7 12 -62 5 -105
-13 -154 -14 -149 -3 32 86 48 148 39 153 -6 4 -13 17 -17 29 -9 28 13 42 29
19 12 -15 20 -16 81 -5 73 13 191 16 549 12 121 -2 285 -3 366 -3 145 -1 199
-10 264 -44 17 -9 36 -16 43 -16 6 0 12 -4 12 -10 0 -5 7 -10 15 -10 8 0 25
-11 39 -25 14 -14 34 -25 46 -25 19 0 18 3 -11 35 -18 19 -38 35 -45 35 -14 0
-96 40 -104 50 -3 4 -12 10 -20 13 -11 4 -10 6 5 7 11 1 28 2 38 1 9 -1 17 2
17 7 0 5 16 17 35 26 23 11 33 22 28 29 -5 9 -3 9 9 0 19 -17 32 -4 15 15 -10
13 -9 15 6 9 36 -13 47 15 46 115 0 51 -4 102 -9 113 -7 17 -9 15 -9 -12 -1
-39 -20 -122 -32 -143 -5 -8 -14 -27 -20 -43 -6 -15 -15 -27 -21 -27 -11 0
-39 -26 -38 -37 0 -4 -7 -8 -14 -8 -8 0 -18 -4 -22 -8 -18 -17 -84 -4 -84 18
0 7 -8 15 -17 19 -10 3 -25 9 -33 14 -43 26 -80 42 -95 42 -9 0 -14 4 -11 8
26 43 -774 34 -804 -8 -7 -9 -67 -21 -105 -21 -28 0 -29 -1 -11 -14 15 -11 16
-15 5 -15 -8 0 -20 5 -26 11 -7 7 -16 8 -29 0 -23 -12 -134 -31 -161 -27 -10
2 -12 1 -5 -1 6 -3 12 -9 12 -15 0 -5 7 -7 16 -4 8 3 12 2 9 -4 -3 -6 1 -10 9
-10 9 0 13 -6 10 -14 -4 -11 -16 -10 -67 6 -56 17 -127 46 -127 51 0 1 20 1
44 -1 55 -5 125 27 149 68 10 16 17 50 17 78 0 44 -4 53 -29 71 -24 17 -44 21
-112 21 -45 0 -80 2 -78 4 2 2 57 6 122 9 65 3 123 9 130 15 7 5 30 13 52 17
22 3 54 13 70 20 17 7 41 16 55 20 14 4 40 13 58 22 18 8 43 16 55 17 30 4 80
18 92 25 6 3 19 7 30 7 11 1 36 5 55 9 140 28 471 50 530 35 19 -4 29 -8 23
-9 -24 -2 -13 -29 14 -36 38 -9 73 -50 73 -86 0 -34 -29 -96 -56 -120 -11 -9
-32 -19 -47 -23 -27 -6 -46 -31 -33 -43 3 -3 11 -1 18 4 7 6 25 13 40 17 34 8
76 49 84 81 3 14 10 25 15 25 5 0 9 25 9 55 0 30 -3 55 -8 55 -4 0 -12 8 -18
18 -10 16 -8 17 23 14 21 -3 30 -8 23 -12 -8 -5 -4 -9 11 -13 13 -4 26 -2 30
4 4 7 9 5 12 -5 4 -9 15 -16 26 -16 11 0 23 -5 27 -11 3 -6 17 -9 30 -6 14 2
27 1 30 -4 2 -4 11 -6 19 -2 8 3 15 0 15 -7 0 -6 4 -9 9 -5 5 3 13 0 16 -5 4
-7 31 -9 72 -6 62 4 97 15 57 17 -10 1 -23 2 -29 4 -5 1 -24 3 -41 3 -22 2
-34 9 -45 29 -8 16 -24 37 -36 49 -13 12 -20 24 -16 27 3 4 1 7 -5 7 -6 0 -17
-7 -26 -15 -8 -8 -18 -15 -23 -15 -4 1 3 10 16 21 21 17 22 22 10 30 -30 20
-89 49 -100 49 -7 0 -26 11 -44 24 -57 44 -140 68 -120 35 4 -5 -3 -9 -15 -9
-20 0 -21 1 -4 18 16 15 16 17 1 20 -9 2 -24 -1 -33 -6 -11 -6 -30 -6 -51 0
-18 5 -38 6 -44 3 -5 -4 -80 -8 -165 -10 -98 -1 -160 -7 -167 -14 -6 -6 -18
-11 -27 -10 -11 0 -9 3 5 9 26 12 -161 11 -230 -1 -173 -29 -343 -72 -408
-103 -40 -18 -80 -36 -89 -40 -10 -3 -18 -10 -18 -16 0 -5 -4 -10 -9 -10 -5 0
-6 19 -4 43 4 36 1 47 -26 77 -17 19 -31 40 -31 45 -1 6 -4 29 -9 51 -7 38 -6
41 12 36 16 -4 19 -2 14 13 -6 13 -3 16 9 11 10 -4 23 3 36 19 12 15 30 25 46
25 15 0 41 9 57 20 17 11 36 20 43 20 8 0 28 6 45 14 31 13 145 39 257 57 30
5 111 13 180 18 69 5 134 12 144 16 14 6 17 5 12 -3 -9 -15 16 -16 31 -1 6 6
13 7 16 2 7 -11 67 -4 67 7 0 5 -6 10 -12 13 -7 2 25 7 70 11 46 4 86 5 90 2
3 -3 -11 -6 -32 -6 -21 0 -39 -6 -42 -13 -3 -8 -17 -12 -37 -11 -24 3 -21 1
11 -7 32 -8 47 -7 58 2 10 8 18 8 27 1 7 -6 45 -8 92 -6 44 3 93 5 109 5 15 0
40 6 54 13 l25 13 -33 6 c-17 4 -36 4 -41 1 -15 -9 -49 6 -49 22 0 8 5 14 10
14 6 0 10 -5 10 -10 0 -6 6 -10 13 -9 20 4 157 -24 163 -33 3 -4 11 -8 18 -8
17 0 121 -50 201 -96 33 -19 76 -42 95 -52 19 -9 37 -20 40 -23 3 -3 20 -11
38 -18 17 -8 32 -17 32 -21 0 -4 8 -11 18 -14 54 -21 255 -158 308 -211 31
-31 39 -90 14 -105 -79 -44 -89 -54 -99 -96 -6 -24 -11 -65 -11 -91 0 -50 24
-159 39 -177 5 -6 16 -34 24 -61 13 -45 13 -52 -1 -74 -19 -28 -76 -65 -116
-75 -30 -7 -95 -66 -115 -103 -6 -12 -11 -44 -11 -71 0 -49 -13 -132 -25 -164
-7 -17 80 -18 1744 -18 l1751 0 0 5120 0 5120 -5120 0 -5120 0 0 -5120z m5215
1764 c15 -29 23 -34 42 -30 13 3 34 9 48 12 22 5 25 3 25 -20 0 -14 -4 -26 -9
-26 -5 0 -11 -7 -15 -15 -10 -27 41 -17 74 15 16 16 31 26 31 22 1 -4 3 -14 4
-22 7 -47 35 -84 35 -45 0 8 5 15 10 15 6 0 10 6 10 13 1 6 14 28 30 47 27 30
30 32 30 13 0 -12 -4 -25 -10 -28 -17 -11 -11 -35 9 -35 11 0 21 -8 23 -17 3
-14 9 -9 22 17 9 19 24 49 33 65 15 26 18 27 21 10 1 -11 8 -30 14 -42 8 -16
8 -30 1 -46 -9 -19 -7 -27 12 -45 29 -28 38 -28 69 3 33 33 42 32 50 -7 l7
-33 15 28 c8 15 19 27 24 27 6 0 1 -17 -10 -37 -11 -20 -18 -39 -15 -41 7 -7
85 9 91 19 3 5 14 9 25 9 10 0 28 9 39 20 35 35 44 14 10 -22 -26 -29 -25 -42
3 -33 12 4 34 8 48 9 15 0 36 10 48 20 28 26 28 0 0 -30 -26 -27 -16 -48 18
-39 14 3 31 1 39 -6 11 -9 21 -5 46 20 29 29 34 30 40 14 21 -57 34 -83 39
-83 3 0 14 9 24 20 27 30 37 24 33 -17 -3 -43 17 -57 31 -20 19 50 34 44 27
-12 -8 -60 -1 -78 20 -56 18 17 34 20 34 4 0 -6 9 -8 20 -4 19 6 20 3 14 -34
-4 -23 -3 -41 0 -41 13 0 51 22 74 43 l23 21 -4 -35 c-2 -19 -1 -55 2 -78 l6
-43 47 36 c26 20 49 36 52 36 3 0 6 -10 6 -22 0 -13 6 -39 13 -58 14 -40 36
-42 75 -7 12 11 22 19 22 16 4 -64 20 -191 25 -199 3 -5 16 -10 29 -10 19 0
24 -8 34 -52 6 -29 21 -98 33 -153 11 -55 27 -122 34 -150 7 -27 16 -70 20
-94 11 -69 32 -109 57 -113 21 -3 23 -8 20 -48 -2 -25 -10 -69 -18 -99 -7 -29
-16 -130 -20 -225 -4 -94 -8 -172 -9 -173 -2 -4 -21 36 -29 61 -5 15 -9 16
-21 6 -8 -7 -15 -21 -15 -30 0 -10 -13 -54 -29 -97 -16 -43 -36 -100 -44 -128
-47 -146 -48 -148 -135 -233 -98 -97 -101 -106 -102 -269 0 -128 -3 -138 -78
-246 -98 -144 -236 -260 -362 -308 -77 -30 -190 -22 -256 16 -41 24 -103 101
-104 129 -1 16 -32 51 -58 65 -17 9 -33 7 -79 -9 -74 -27 -221 -30 -255 -6
-30 21 -55 22 -34 1 8 -8 17 -15 20 -15 3 0 20 -16 39 -35 19 -19 39 -35 46
-35 6 0 11 -4 11 -10 0 -12 -13 -7 -108 41 -42 22 -85 39 -97 39 -11 0 -25 4
-31 10 -5 5 -44 14 -87 20 -88 13 -170 38 -127 40 31 1 60 22 60 43 0 23 -59
54 -120 62 -30 4 -61 11 -70 15 -8 5 -58 15 -110 24 -194 32 -372 71 -437 97
-55 22 -121 78 -167 141 -87 121 -130 367 -114 652 5 89 8 230 5 315 -2 84 -2
173 1 197 4 38 7 44 23 39 14 -5 19 -1 19 14 0 11 7 26 15 35 8 8 15 19 15 24
0 5 8 16 19 23 18 14 57 172 46 190 -3 4 4 6 16 4 13 -3 26 -10 30 -16 18 -29
29 7 29 94 0 90 1 93 33 128 54 59 102 121 129 169 41 70 61 89 107 96 23 4
44 11 47 15 3 5 16 9 29 9 33 0 80 47 96 95 23 70 15 67 204 63 172 -4 219
-12 193 -30 -9 -7 -5 -8 12 -4 14 3 42 3 63 -1 30 -4 35 -8 26 -19 -8 -10 -8
-14 -1 -14 6 0 14 5 17 10 4 7 12 7 25 0 31 -16 97 -12 104 6 6 15 8 15 26 -1
11 -10 20 -24 20 -32 0 -7 5 -13 10 -13 6 0 10 9 10 21 0 11 -4 18 -8 15 -5
-3 -19 14 -32 37 -29 51 -47 70 -59 63 -5 -4 -11 -1 -13 4 -2 6 -36 14 -76 17
-45 4 -68 9 -60 14 8 6 1 9 -22 9 -27 0 -32 -3 -20 -11 11 -8 8 -9 -15 -4 -51
12 -187 3 -326 -20 -21 -4 -39 -3 -39 2 1 19 57 88 75 92 24 4 95 52 130 87
13 13 28 24 32 24 4 0 26 20 48 45 26 29 51 48 70 51 17 3 34 9 40 15 17 17
30 10 50 -27z m-955 -2844 c8 -4 54 -13 103 -20 92 -13 115 -29 45 -32 -24 -1
-61 -2 -83 -3 -22 -1 -58 -5 -79 -9 -45 -9 -56 1 -56 52 0 30 2 32 28 26 15
-4 34 -10 42 -14z m455 -55 c77 -3 182 -6 233 -7 51 0 95 -4 97 -8 3 -5 38
-11 77 -15 40 -4 84 -13 98 -20 14 -7 42 -15 63 -19 20 -4 37 -11 37 -15 0 -5
14 -11 30 -15 17 -3 43 -14 58 -24 107 -73 127 -87 130 -94 2 -4 19 -17 38
-29 22 -13 33 -27 30 -36 -3 -8 -2 -11 3 -8 6 3 25 -10 44 -30 19 -19 38 -31
42 -27 5 4 5 2 2 -4 -8 -13 -145 24 -210 57 -46 23 -47 23 -47 5 0 -13 46 -70
103 -127 15 -15 27 -30 27 -33 0 -3 -21 -6 -47 -6 -45 -1 -47 -1 -28 -16 11
-9 77 -44 147 -79 127 -63 198 -109 198 -128 0 -13 -91 -3 -180 19 -38 10 -72
16 -75 12 -13 -13 10 -91 43 -140 36 -54 40 -77 27 -139 -8 -42 10 -66 56 -76
28 -5 29 -7 29 -69 0 -34 4 -74 9 -87 10 -25 24 -30 129 -44 l44 -5 -7 -36
c-4 -20 -13 -49 -22 -65 -18 -36 -14 -40 21 -22 16 8 41 15 57 15 l29 0 -15
-37 c-9 -21 -27 -55 -41 -75 -22 -31 -24 -40 -13 -59 7 -15 10 -46 6 -90 -3
-37 -3 -70 0 -73 3 -3 19 6 35 19 24 20 33 23 50 14 11 -6 17 -17 14 -25 -3
-8 -12 -40 -21 -72 -8 -31 -33 -109 -56 -172 -22 -63 -66 -192 -97 -287 -55
-166 -58 -172 -82 -169 -14 1 -30 5 -35 8 -6 3 -35 9 -65 12 -30 4 -73 10 -95
13 -22 3 -105 7 -185 7 -138 2 -269 18 -280 35 -5 8 -61 22 -105 28 -11 1 -38
7 -60 12 -22 6 -97 11 -167 11 -113 0 -134 -3 -181 -24 -53 -23 -97 -69 -97
-100 0 -9 -4 -16 -8 -16 -4 0 -9 -36 -11 -80 -2 -79 -2 -81 31 -113 18 -17 32
-35 31 -38 -1 -3 8 -4 20 -2 12 2 28 -1 36 -6 11 -7 6 -19 -25 -58 -21 -26
-42 -49 -46 -51 -3 -2 -16 -12 -28 -22 -13 -11 -27 -17 -33 -13 -6 3 -7 1 -3
-6 4 -6 0 -14 -11 -18 -10 -4 -27 -16 -38 -26 -11 -11 -32 -24 -47 -29 -16 -6
-28 -14 -28 -19 0 -5 -5 -9 -12 -9 -6 0 -39 -18 -73 -40 -61 -40 -95 -45 -95
-14 0 7 11 34 25 60 14 26 31 66 37 88 7 23 15 43 18 46 16 14 51 211 60 335
12 165 -2 441 -26 525 -43 150 -153 236 -271 210 -47 -11 -78 -37 -114 -95
-23 -39 -24 -47 -31 -310 -7 -270 -18 -384 -33 -337 -4 12 -11 22 -15 22 -4 0
-13 26 -20 58 -7 31 -17 62 -22 68 -13 17 -21 430 -10 529 11 96 36 213 51
242 10 19 36 91 66 183 9 30 20 100 23 157 2 56 8 100 12 98 4 -3 15 4 25 15
13 14 31 20 64 20 76 0 120 11 144 36 21 22 29 24 138 24 81 0 121 4 134 14
22 16 14 46 -12 46 -14 1 -13 4 7 15 14 8 31 14 38 15 7 0 42 14 77 30 35 17
69 30 75 30 5 0 10 5 10 10 0 6 5 10 12 10 16 0 58 40 58 56 0 7 -8 14 -17 17
-16 3 -16 5 2 12 11 5 22 11 25 15 3 3 25 14 50 25 88 38 115 98 66 144 -27
25 -24 51 5 51 27 0 53 44 45 76 -10 37 -36 74 -52 74 -14 0 -17 10 -15 46 2
18 -4 21 -45 22 -52 0 -75 17 -79 56 -5 40 -13 46 -71 46 l-54 0 0 34 c0 37
-12 46 -63 46 l-32 0 28 19 c21 13 25 20 15 25 -7 3 7 3 32 1 25 -2 108 -7
185 -10z m-1715 -910 c0 -8 -2 -15 -4 -15 -2 0 -6 7 -10 15 -3 8 -1 15 4 15 6
0 10 -7 10 -15z m50 -32 c0 -13 94 -65 173 -97 l37 -15 -17 -38 c-9 -21 -25
-58 -35 -83 -11 -25 -24 -54 -30 -65 -6 -10 -21 -38 -33 -62 -21 -38 -54 -89
-80 -121 -5 -7 -35 -36 -65 -65 -176 -167 -208 -209 -236 -306 l-17 -63 -101
6 c-56 4 -153 11 -217 17 -172 17 -591 -8 -849 -50 -69 -11 -156 -26 -195 -32
-38 -6 -90 -17 -115 -24 -25 -7 -63 -16 -85 -19 -22 -4 -53 -12 -68 -18 -62
-24 -42 11 98 167 84 94 104 114 239 228 27 23 56 46 65 51 9 5 34 24 57 43
23 18 46 33 52 33 6 0 12 4 14 8 4 9 149 94 228 132 226 111 463 177 770 215
67 9 190 41 228 61 15 7 33 14 40 14 6 0 12 3 12 8 0 4 14 15 31 24 30 17 31
17 87 -11 50 -25 132 -47 132 -36 0 3 -21 14 -47 26 -83 37 -129 79 -88 79 8
0 15 -3 15 -7z m322 -138 c60 -15 124 -22 282 -30 55 -2 102 -8 105 -12 3 -5
21 -19 40 -32 39 -27 61 -21 72 20 l7 24 1 -25 c1 -51 -59 -269 -88 -321 -5
-9 -20 -54 -33 -100 -21 -79 -23 -101 -23 -349 1 -223 4 -276 19 -335 20 -78
50 -151 73 -177 12 -13 14 -30 9 -72 -4 -31 -12 -58 -17 -61 -5 -4 -9 -14 -9
-24 0 -19 -35 -131 -68 -216 l-20 -50 -68 -12 c-97 -16 -179 -38 -253 -68 -36
-14 -70 -25 -75 -25 -17 0 -94 142 -146 265 -83 196 -138 289 -232 385 -110
114 -154 169 -196 246 -30 57 -31 145 -1 175 12 12 25 36 30 54 21 76 104 176
232 279 94 76 169 193 235 366 12 30 24 67 28 83 7 31 18 33 96 12z m2898
-253 c0 -5 -9 -18 -20 -30 -20 -21 -20 -23 -3 -40 59 -61 218 -86 368 -58 85
15 98 13 240 -50 86 -37 259 -89 394 -117 l55 -11 -70 -12 c-128 -23 -319 -10
-399 27 -54 25 -195 58 -251 59 -37 0 -43 -3 -48 -25 -4 -14 -4 -30 -1 -36 18
-28 -51 -270 -121 -426 -28 -65 -43 -99 -64 -148 -12 -27 -30 -68 -40 -90 -30
-65 -57 -129 -63 -147 -4 -10 -12 -18 -20 -18 -7 0 -84 18 -172 40 -88 22
-167 40 -177 40 -10 0 -18 5 -18 10 0 6 -7 10 -16 10 -16 0 -14 20 6 65 5 11
13 36 19 55 12 43 107 317 120 345 5 11 21 58 36 105 15 47 31 90 35 95 3 6
12 30 19 55 6 25 16 54 21 65 5 11 20 50 34 86 32 88 70 146 98 152 13 2 26 5
31 6 4 0 7 -3 7 -7z m-2280 -371 c0 -5 -10 -11 -22 -14 -22 -6 -22 -6 -4 8 23
17 26 18 26 6z m160 -11 c0 -5 -4 -10 -9 -10 -6 0 -13 5 -16 10 -3 6 1 10 9
10 9 0 16 -4 16 -10z m-140 -20 c0 -5 -2 -10 -4 -10 -3 0 -8 5 -11 10 -3 6 -1
10 4 10 6 0 11 -4 11 -10z m157 -47 c-3 -10 -5 -4 -5 12 0 17 2 24 5 18 2 -7
2 -21 0 -30z m72 -46 c1 -5 -3 -5 -9 -2 -5 3 -10 16 -9 28 0 21 1 21 9 2 5
-11 9 -24 9 -28z m-40 -21 c7 -8 14 -50 17 -93 2 -43 8 -116 12 -163 4 -47 4
-148 1 -226 -4 -115 -9 -151 -29 -200 -13 -32 -27 -63 -32 -68 -4 -6 -8 -18
-8 -28 0 -11 -9 -38 -20 -60 -11 -23 -20 -52 -20 -64 0 -13 -5 -26 -10 -29 -8
-5 -8 -11 0 -20 8 -9 8 -15 0 -20 -6 -3 -8 -11 -5 -16 9 -14 -19 -11 -51 6
-20 10 -62 15 -134 16 -58 1 -97 3 -88 6 10 2 20 17 23 31 7 36 23 89 39 132
8 19 23 62 36 95 12 33 26 69 31 80 32 71 42 130 48 295 l6 175 33 48 c17 26
32 50 32 53 0 12 35 40 64 51 41 15 42 15 55 -1z m53 -31 c3 -14 2 -27 -1 -30
-4 -2 -8 10 -9 26 -3 36 4 38 10 4z m17 -82 c0 -25 -1 -25 -8 -8 -5 11 -7 23
-4 28 8 14 13 7 12 -20z m8 -205 c-3 -8 -6 -5 -6 6 -1 11 2 17 5 13 3 -3 4
-12 1 -19z m0 -125 c-3 -10 -5 -2 -5 17 0 19 2 27 5 18 2 -10 2 -26 0 -35z
m657 36 c34 -6 88 -20 121 -29 33 -10 76 -21 95 -25 19 -3 46 -10 60 -15 14
-5 117 -11 230 -14 113 -3 225 -11 250 -17 25 -5 81 -17 125 -26 44 -9 82 -19
85 -23 3 -4 29 -11 58 -15 59 -8 68 -22 20 -29 -207 -34 -274 -38 -373 -26
-83 10 -115 10 -176 -1 -40 -7 -78 -14 -84 -14 -5 -1 -20 -6 -32 -13 -12 -7
-26 -12 -30 -11 -4 1 -17 0 -28 -1 -17 -2 -17 -3 5 -11 21 -7 20 -8 -11 -5
-21 3 -52 -3 -76 -14 -22 -10 -59 -21 -82 -25 -22 -4 -43 -11 -47 -16 -3 -5
-12 -9 -20 -9 -8 0 -35 -9 -60 -21 -49 -22 -41 -22 -199 17 -33 8 -89 21 -124
28 -51 11 -71 21 -94 46 -25 28 -28 39 -26 84 2 28 7 57 12 64 5 6 7 12 3 12
-4 0 1 14 10 31 19 38 26 32 53 -52 21 -65 20 -99 -3 -99 -6 0 3 -7 19 -16 36
-20 177 -24 183 -6 2 7 9 12 16 12 7 0 23 8 34 19 18 15 22 29 22 78 0 50 -4
65 -24 86 -31 33 -101 50 -175 42 l-56 -5 35 14 c43 18 201 20 284 5z m-1027
-76 c-3 -10 -5 -2 -5 17 0 19 2 27 5 18 2 -10 2 -26 0 -35z m8 -55 c5 4 5 1 1
-6 -6 -10 -11 -10 -22 -1 -8 6 -14 14 -14 16 0 3 6 0 13 -6 8 -6 18 -7 22 -3z
m355 -63 c0 -14 -4 -25 -10 -25 -11 0 -14 33 -3 43 11 11 13 8 13 -18z m-360
0 c0 -8 -2 -15 -4 -15 -2 0 -6 7 -10 15 -3 8 -1 15 4 15 6 0 10 -7 10 -15z
m-33 -37 c-3 -7 -5 -2 -5 12 0 14 2 19 5 13 2 -7 2 -19 0 -25z m2209 7 c-1 -8
-6 -18 -11 -22 -4 -4 -5 -2 -1 5 5 9 -7 12 -51 13 -67 1 -46 17 24 18 31 1 41
-3 39 -14z m-578 -12 c-10 -2 -28 -2 -40 0 -13 2 -5 4 17 4 22 1 32 -1 23 -4z
m495 -10 c-7 -2 -19 -2 -25 0 -7 3 -2 5 12 5 14 0 19 -2 13 -5z m707 -8 c11
-13 10 -14 -4 -9 -9 3 -16 10 -16 15 0 13 6 11 20 -6z m-1087 -12 c-13 -2 -33
-2 -45 0 -13 2 -3 4 22 4 25 0 35 -2 23 -4z m865 0 c-10 -2 -26 -2 -35 0 -10
3 -2 5 17 5 19 0 27 -2 18 -5z m187 -3 c13 -5 14 -9 5 -9 -8 0 -24 4 -35 9
-13 5 -14 9 -5 9 8 0 24 -4 35 -9z m-118 -6 c-3 -3 -12 -4 -19 -1 -8 3 -5 6 6
6 11 1 17 -2 13 -5z m43 -14 c0 -5 -4 -10 -10 -10 -5 0 -10 5 -10 10 0 6 5 10
10 10 6 0 10 -4 10 -10z m-2353 -22 c-3 -8 -6 -5 -6 6 -1 11 2 17 5 13 3 -3 4
-12 1 -19z m2433 8 c0 -2 -11 -6 -25 -8 -13 -3 -22 -1 -19 3 5 9 44 13 44 5z
m-2833 -28 c-3 -8 -6 -5 -6 6 -1 11 2 17 5 13 3 -3 4 -12 1 -19z m365 0 c-7
-7 -12 -8 -12 -2 0 14 12 26 19 19 2 -3 -1 -11 -7 -17z m2377 -8 c11 0 21 -5
21 -11 0 -6 -7 -8 -16 -5 -9 3 -27 9 -40 12 -24 6 -30 15 -17 28 4 4 13 0 19
-8 6 -9 21 -16 33 -16z m6 20 c3 -5 1 -10 -4 -10 -6 0 -11 5 -11 10 0 6 2 10
4 10 3 0 8 -4 11 -10z m-2701 -15 c-4 -8 -8 -15 -10 -15 -2 0 -4 7 -4 15 0 8
4 15 10 15 5 0 7 -7 4 -15z m338 -37 c-8 -8 -9 -4 -5 13 4 13 8 18 11 10 2 -7
-1 -18 -6 -23z m2413 16 c-9 -9 -19 -13 -23 -10 -3 4 0 11 8 16 24 15 33 11
15 -6z m-2775 -26 c0 -5 -4 -8 -10 -8 -5 0 -10 10 -10 23 0 18 2 19 10 7 5 -8
10 -18 10 -22z m2937 0 c-3 -7 -5 -2 -5 12 0 14 2 19 5 13 2 -7 2 -19 0 -25z
m-2969 -33 c-3 -3 -9 2 -12 12 -6 14 -5 15 5 6 7 -7 10 -15 7 -18z m2922 16
c0 -5 8 -12 18 -14 14 -4 14 -5 1 -6 -9 0 -22 6 -29 14 -9 10 -9 15 -1 15 6 0
11 -4 11 -9z m-33 -17 c-3 -3 -12 -4 -19 -1 -8 3 -5 6 6 6 11 1 17 -2 13 -5z
m-2897 -25 c0 -6 -4 -7 -10 -4 -5 3 -10 1 -10 -6 0 -7 -2 -10 -5 -7 -9 8 6 38
16 32 5 -3 9 -10 9 -15z m380 -19 c0 -5 -2 -10 -4 -10 -3 0 -8 5 -11 10 -3 6
-1 10 4 10 6 0 11 -4 11 -10z m-399 -35 c5 4 9 1 9 -5 0 -17 -25 -6 -26 11 -1
9 1 10 3 1 3 -7 9 -10 14 -7z m339 8 c0 -5 -5 -15 -10 -23 -7 -12 -9 -10 -7 8
1 19 17 33 17 15z m20 -73 c0 -13 -1 -13 -10 0 -5 8 -10 22 -10 30 0 13 1 13
10 0 5 -8 10 -22 10 -30z m-395 0 c3 -5 1 -10 -4 -10 -6 0 -11 5 -11 10 0 6 2
10 4 10 3 0 8 -4 11 -10z m2172 4 c-3 -3 -12 -4 -19 -1 -8 3 -5 6 6 6 11 1 17
-2 13 -5z m-1804 -45 c-8 -28 -12 -23 -11 12 1 17 4 25 8 18 4 -6 5 -20 3 -30z
m1605 34 c-10 -2 -26 -2 -35 0 -10 3 -2 5 17 5 19 0 27 -2 18 -5z m480 -19 c2
-1 -8 -1 -21 0 -15 0 -23 6 -20 14 4 10 9 10 22 0 9 -7 17 -13 19 -14z m-711
-10 c-3 -3 -12 -4 -19 -1 -8 3 -5 6 6 6 11 1 17 -2 13 -5z m-1678 -18 c-2 -2
-31 -6 -64 -9 -37 -3 -51 -2 -35 3 25 8 107 13 99 6z m1928 -16 c3 -10 2 -11
-4 -4 -4 7 -19 14 -33 17 -22 4 -21 5 4 4 17 -1 31 -9 33 -17z m-1712 0 c-3
-5 -12 -10 -18 -10 -7 0 -6 4 3 10 19 12 23 12 15 0z m1358 3 c-7 -2 -19 -2
-25 0 -7 3 -2 5 12 5 14 0 19 -2 13 -5z m570 0 c-13 -2 -35 -2 -50 0 -16 2 -5
4 22 4 28 0 40 -2 28 -4z m95 0 c-10 -2 -26 -2 -35 0 -10 3 -2 5 17 5 19 0 27
-2 18 -5z m-1993 -22 c-3 -6 -11 -11 -16 -11 -5 0 -4 6 3 14 14 16 24 13 13
-3z m1245 9 c-8 -5 -19 -10 -25 -10 -5 0 -3 5 5 10 8 5 20 10 25 10 6 0 3 -5
-5 -10z m350 -10 c0 -5 -8 -10 -17 -10 -15 0 -16 2 -3 10 19 12 20 12 20 0z
m-1655 -10 c7 -11 -9 -11 -45 0 -24 8 -24 8 7 9 17 1 35 -3 38 -9z m100 -8
c-3 -3 -11 0 -18 7 -9 10 -8 11 6 5 10 -3 15 -9 12 -12z m1410 8 c3 -5 -1 -10
-10 -10 -9 0 -13 5 -10 10 3 6 8 10 10 10 2 0 7 -4 10 -10z m622 4 c-3 -3 -12
-4 -19 -1 -8 3 -5 6 6 6 11 1 17 -2 13 -5z m74 -15 l24 -21 -25 16 c-32 21
-46 20 -29 -1 13 -15 12 -15 -8 -3 -22 14 -22 30 1 30 8 0 24 -9 37 -21z
m-2478 4 c-7 -2 -19 -2 -25 0 -7 3 -2 5 12 5 14 0 19 -2 13 -5z m1472 -3 c-3
-5 -14 -10 -23 -9 -14 0 -13 2 3 9 27 11 27 11 20 0z m393 3 c-10 -2 -26 -2
-35 0 -10 3 -2 5 17 5 19 0 27 -2 18 -5z m-203 -23 c-3 -5 -11 -10 -17 -10 -5
0 -25 -7 -44 -16 -19 -9 -38 -14 -41 -10 -3 3 1 6 10 6 10 0 17 4 17 8 0 4 15
13 33 19 44 14 49 15 42 3z m358 3 c-7 -2 -19 -2 -25 0 -7 3 -2 5 12 5 14 0
19 -2 13 -5z m-606 -9 c-3 -3 -12 -4 -19 -1 -8 3 -5 6 6 6 11 1 17 -2 13 -5z
m1018 -4 c-3 -5 -14 -10 -23 -10 -15 0 -15 2 -2 10 20 13 33 13 25 0z m-972
-7 c-7 -2 -19 -2 -25 0 -7 3 -2 5 12 5 14 0 19 -2 13 -5z m1034 1 c-3 -3 -12
-4 -19 -1 -8 3 -5 6 6 6 11 1 17 -2 13 -5z m-2042 -24 c3 -5 1 -10 -4 -10 -6
0 -11 5 -11 10 0 6 2 10 4 10 3 0 8 -4 11 -10z m933 3 c-10 -2 -26 -2 -35 0
-10 3 -2 5 17 5 19 0 27 -2 18 -5z m1177 -3 c3 -5 2 -10 -4 -10 -5 0 -13 5
-16 10 -3 6 -2 10 4 10 5 0 13 -4 16 -10z m150 -11 c11 -17 -1 -21 -15 -4 -8
9 -8 15 -2 15 6 0 14 -5 17 -11z m-1447 -6 c-10 -2 -26 -2 -35 0 -10 3 -2 5
17 5 19 0 27 -2 18 -5z m1382 -31 c0 -1 -9 2 -20 8 -11 6 -20 15 -20 20 0 6 9
2 20 -7 11 -10 20 -19 20 -21z m-50 24 c0 -3 -4 -8 -10 -11 -5 -3 -10 -1 -10
4 0 6 5 11 10 11 6 0 10 -2 10 -4z m-2075 -24 c-3 -3 -11 0 -18 7 -9 10 -8 11
6 5 10 -3 15 -9 12 -12z m675 14 c0 -2 -15 -6 -34 -8 -19 -2 -32 0 -30 4 5 8
64 12 64 4z m250 -4 c0 -4 -9 -8 -20 -8 -11 0 -20 4 -20 8 0 4 9 8 20 8 11 0
20 -4 20 -8z m-395 -12 c-3 -5 -14 -10 -23 -9 -14 0 -13 2 3 9 27 11 27 11 20
0z m452 4 c-3 -3 -12 -4 -19 -1 -8 3 -5 6 6 6 11 1 17 -2 13 -5z m-577 -24
l25 -8 -25 -1 c-14 0 -32 4 -40 9 -13 9 -13 10 0 9 8 -1 26 -5 40 -9z m80 -6
c0 -2 -11 -3 -24 -2 -14 1 -23 5 -20 9 4 7 44 0 44 -7z m400 12 c0 -3 -4 -8
-10 -11 -5 -3 -10 -1 -10 4 0 6 5 11 10 11 6 0 10 -2 10 -4z m-151 -16 c-9 -5
-28 -6 -45 0 -27 8 -26 8 16 9 32 0 40 -2 29 -9z m-94 -10 c3 -5 1 -10 -4 -10
-6 0 -11 5 -11 10 0 6 2 10 4 10 3 0 8 -4 11 -10z m155 -10 c-8 -5 -26 -9 -40
-9 l-25 1 25 8 c14 4 32 8 40 9 13 1 13 0 0 -9z m-733 -6 c-3 -3 -12 -4 -19
-1 -8 3 -5 6 6 6 11 1 17 -2 13 -5z m643 -4 c24 -8 24 -8 -7 -9 -17 -1 -35 4
-38 9 -7 11 9 11 45 0z m-1055 -190 c3 -5 1 -10 -4 -10 -6 0 -11 5 -11 10 0 6
2 10 4 10 3 0 8 -4 11 -10z m29 -36 c9 -24 2 -26 -12 -4 -7 11 -8 20 -3 20 5
0 12 -7 15 -16z m1929 9 c-24 -2 -62 -2 -85 0 -24 2 -5 4 42 4 47 0 66 -2 43
-4z m647 -15 c0 -16 -3 -19 -11 -11 -6 6 -8 16 -5 22 11 17 16 13 16 -11z
m-2814 -23 c-3 -9 0 -15 9 -15 7 0 17 -5 21 -11 5 -9 -1 -10 -22 -5 -37 10
-39 12 -23 30 18 20 23 20 15 1z m39 5 c3 -5 2 -10 -4 -10 -5 0 -13 5 -16 10
-3 6 -2 10 4 10 5 0 13 -4 16 -10z m2032 -6 c-3 -3 -12 -4 -19 -1 -8 3 -5 6 6
6 11 1 17 -2 13 -5z m161 -1 c-10 -2 -28 -2 -40 0 -13 2 -5 4 17 4 22 1 32 -1
23 -4z m-598 -13 c0 -12 -24 -12 -60 0 -21 7 -19 8 18 9 23 1 42 -3 42 -9z
m43 3 c-7 -2 -19 -2 -25 0 -7 3 -2 5 12 5 14 0 19 -2 13 -5z m777 -23 c0 -5
-7 -7 -15 -4 -8 4 -15 8 -15 10 0 2 7 4 15 4 8 0 15 -4 15 -10z m57 4 c-3 -3
-12 -4 -19 -1 -8 3 -5 6 6 6 11 1 17 -2 13 -5z m-2455 -11 c-10 -4 -10 -8 0
-21 12 -14 11 -14 -9 -1 -16 9 -19 16 -10 21 7 4 17 7 22 7 6 0 4 -3 -3 -6z
m138 -18 c0 -1 -8 -5 -18 -7 -11 -3 -19 0 -19 7 0 7 8 10 19 7 10 -2 18 -6 18
-7z m58 -5 c8 0 13 -2 10 -5 -3 -4 -18 -3 -33 1 -20 5 -23 9 -13 15 7 5 14 4
16 -1 2 -6 11 -10 20 -10z m-233 0 c3 -6 -1 -7 -9 -4 -18 7 -21 14 -7 14 6 0
13 -4 16 -10z m1365 0 c0 -5 -2 -10 -4 -10 -3 0 -8 5 -11 10 -3 6 -1 10 4 10
6 0 11 -4 11 -10z m268 3 c-10 -2 -26 -2 -35 0 -10 3 -2 5 17 5 19 0 27 -2 18
-5z m125 0 c-7 -2 -19 -2 -25 0 -7 3 -2 5 12 5 14 0 19 -2 13 -5z m170 0 c-13
-2 -33 -2 -45 0 -13 2 -3 4 22 4 25 0 35 -2 23 -4z m404 1 c-3 -3 -12 -4 -19
-1 -8 3 -5 6 6 6 11 1 17 -2 13 -5z m-620 -10 c-3 -3 -12 -4 -19 -1 -8 3 -5 6
6 6 11 1 17 -2 13 -5z m666 -1 c-7 -2 -19 -2 -25 0 -7 3 -2 5 12 5 14 0 19 -2
13 -5z m-2233 -23 l25 -8 -25 0 c-14 0 -34 3 -45 8 l-20 9 20 -1 c11 0 31 -4
45 -8z m1295 0 c-3 -5 -11 -10 -16 -10 -6 0 -7 5 -4 10 3 6 11 10 16 10 6 0 7
-4 4 -10z m776 -8 c-7 -2 -18 1 -23 6 -8 8 -4 9 13 5 13 -4 18 -8 10 -11z
m126 12 c-3 -3 -12 -4 -19 -1 -8 3 -5 6 6 6 11 1 17 -2 13 -5z m-2041 -19 c10
-8 15 -14 9 -14 -5 0 -19 6 -29 14 -11 8 -15 15 -10 15 6 0 19 -7 30 -15z
m1197 8 c-7 -2 -19 -2 -25 0 -7 3 -2 5 12 5 14 0 19 -2 13 -5z m320 -200 c-7
-2 -19 -2 -25 0 -7 3 -2 5 12 5 14 0 19 -2 13 -5z m-588 -13 c-12 -5 -14 -9
-6 -9 8 -1 12 -4 9 -7 -4 -3 -19 1 -35 10 l-28 15 40 0 c31 0 36 -2 20 -9z
m432 -6 c-3 -3 -12 -4 -19 -1 -8 3 -5 6 6 6 11 1 17 -2 13 -5z m43 -14 c12 -8
11 -10 -7 -10 -13 0 -23 5 -23 10 0 13 11 13 30 0z m-783 -16 c-3 -3 -12 -4
-19 -1 -8 3 -5 6 6 6 11 1 17 -2 13 -5z m413 -4 c13 -8 13 -10 -2 -10 -9 0
-20 5 -23 10 -8 13 5 13 25 0z m317 4 c-3 -3 -12 -4 -19 -1 -8 3 -5 6 6 6 11
1 17 -2 13 -5z m103 -5 c0 -7 10 -9 24 -5 14 3 27 2 31 -3 3 -6 -11 -13 -31
-17 -26 -5 -39 -3 -45 7 -13 20 -11 29 6 29 8 0 15 -5 15 -11z m-53 -5 c-3 -3
-12 -4 -19 -1 -8 3 -5 6 6 6 11 1 17 -2 13 -5z m-72 -14 c-3 -5 -12 -10 -18
-10 -7 0 -6 4 3 10 19 12 23 12 15 0z m-258 -6 c-3 -3 -12 -4 -19 -1 -8 3 -5
6 6 6 11 1 17 -2 13 -5z m90 -10 c-3 -3 -12 -4 -19 -1 -8 3 -5 6 6 6 11 1 17
-2 13 -5z m110 0 c-3 -3 -12 -4 -19 -1 -8 3 -5 6 6 6 11 1 17 -2 13 -5z m338
-4 c4 -7 -3 -8 -22 -4 -38 9 -42 14 -10 14 14 0 29 -5 32 -10z m215 -31 c0 -5
-6 -9 -13 -9 -8 0 -14 6 -14 14 0 8 6 12 14 9 7 -3 13 -9 13 -14z m-123 5 c-3
-3 -12 -4 -19 -1 -8 3 -5 6 6 6 11 1 17 -2 13 -5z m43 -4 c0 -5 -5 -10 -11
-10 -5 0 -7 5 -4 10 3 6 8 10 11 10 2 0 4 -4 4 -10z m-1165 -9 c3 -5 1 -12 -5
-16 -5 -3 -10 1 -10 9 0 18 6 21 15 7z m1205 -1 c0 -5 -2 -10 -4 -10 -3 0 -8
5 -11 10 -3 6 -1 10 4 10 6 0 11 -4 11 -10z m105 -20 c-3 -5 -13 -10 -21 -10
-8 0 -12 5 -9 10 3 6 13 10 21 10 8 0 12 -4 9 -10z m-1272 -24 c24 -22 24 -24
7 -29 -13 -3 -17 0 -13 9 3 8 -1 14 -11 14 -9 0 -16 7 -16 15 0 20 3 19 33 -9z
m-73 4 c0 -5 -2 -10 -4 -10 -3 0 -8 5 -11 10 -3 6 -1 10 4 10 6 0 11 -4 11
-10z m1370 -10 c0 -5 -8 -10 -17 -10 -15 0 -16 2 -3 10 19 12 20 12 20 0z
m-1423 -32 c-3 -8 -6 -5 -6 6 -1 11 2 17 5 13 3 -3 4 -12 1 -19z m1432 -19
c-7 -4 -16 -5 -19 -2 -3 3 1 8 8 10 6 3 13 12 13 21 1 14 2 13 6 -2 3 -10 -1
-22 -8 -27z m-1463 5 c-4 -9 -9 -15 -11 -12 -3 3 -3 13 1 22 4 9 9 15 11 12 3
-3 3 -13 -1 -22z m155 -17 c-10 -9 -11 -8 -5 6 3 10 9 15 12 12 3 -3 0 -11 -7
-18z m-226 -17 c3 -5 1 -10 -4 -10 -6 0 -11 5 -11 10 0 6 2 10 4 10 3 0 8 -4
11 -10z m105 6 c0 -3 -4 -8 -10 -11 -5 -3 -10 -1 -10 4 0 6 5 11 10 11 6 0 10
-2 10 -4z m194 -22 c9 -24 7 -27 -9 -10 -17 17 -19 26 -6 26 5 0 12 -7 15 -16z
m1390 1 c3 -9 0 -15 -9 -15 -8 0 -15 7 -15 15 0 8 4 15 9 15 5 0 11 -7 15 -15z
m-1661 -30 c-3 -9 -8 -14 -10 -11 -3 3 -2 9 2 15 9 16 15 13 8 -4z m57 5 c0
-5 -4 -10 -10 -10 -5 0 -10 5 -10 10 0 6 5 10 10 10 6 0 10 -4 10 -10z"/>
<path d="M5370 6590 c0 -4 16 -10 35 -12 21 -2 34 0 32 6 -4 12 -67 17 -67 6z"/>
<path d="M5397 6564 c-4 -4 2 -14 12 -23 10 -9 20 -23 24 -31 3 -9 6 -4 6 13
1 18 -4 27 -15 27 -8 0 -12 5 -9 10 7 11 -8 14 -18 4z"/>
<path d="M4955 6530 c-3 -5 -1 -10 4 -10 6 0 11 5 11 10 0 6 -2 10 -4 10 -3 0
-8 -4 -11 -10z"/>
<path d="M4986 6523 c-3 -10 -8 -23 -11 -28 -3 -6 4 -16 15 -23 19 -11 20 -10
15 10 -7 30 4 45 35 51 19 3 16 5 -11 6 -27 1 -38 -4 -43 -16z"/>
<path d="M5055 6520 c-16 -6 -12 -9 20 -12 37 -4 36 -5 -12 -6 -42 -2 -51 -5
-47 -17 4 -8 10 -15 16 -15 5 0 6 5 3 10 -7 11 8 14 19 3 7 -7 77 -5 85 3 6 5
-42 43 -54 43 -5 0 -19 -4 -30 -9z"/>
<path d="M5158 6503 c7 -3 16 -2 19 1 4 3 -2 6 -13 5 -11 0 -14 -3 -6 -6z"/>
<path d="M5173 6486 c-23 -11 -32 -46 -13 -46 6 0 10 7 10 15 0 7 8 18 17 24
25 13 13 19 -14 7z"/>
<path d="M5350 6459 c-45 -23 -66 -23 -79 -1 -10 16 -11 15 -12 -3 -1 -11 -1
-29 0 -40 0 -14 -1 -16 -6 -5 -3 8 -12 19 -19 23 -8 4 -14 16 -14 25 0 15 -2
15 -10 2 -13 -19 -13 -60 0 -60 5 0 7 7 4 15 -4 8 -1 15 5 15 6 0 11 -6 11
-14 0 -23 27 -38 62 -34 32 4 32 4 9 14 -23 10 -23 11 -5 19 10 4 27 9 37 10
11 1 22 7 25 12 4 6 18 13 31 14 20 3 22 6 10 15 -10 8 -23 6 -49 -7z"/>
<path d="M5058 6448 c17 -8 26 -8 34 0 9 9 4 12 -22 11 -33 0 -34 -1 -12 -11z"/>
<path d="M5110 6448 c0 -9 -5 -18 -12 -20 -6 -2 -8 -10 -4 -16 9 -14 66 -16
66 -2 0 6 -5 9 -12 8 -6 -2 -17 8 -25 22 -9 17 -13 20 -13 8z"/>
<path d="M5405 6420 c-3 -5 -1 -10 4 -10 6 0 11 5 11 10 0 6 -2 10 -4 10 -3 0
-8 -4 -11 -10z"/>
<path d="M4813 6393 c-13 -2 -23 -8 -23 -13 0 -4 -12 -11 -27 -15 -16 -3 -46
-18 -68 -32 -41 -26 -195 -180 -195 -195 0 -19 21 -4 82 60 77 79 99 96 180
140 54 28 70 32 141 32 63 0 91 -5 126 -22 64 -31 111 -64 103 -73 -4 -3 -2
-6 3 -4 15 3 44 -11 90 -43 22 -16 50 -36 62 -44 15 -11 27 -13 39 -6 15 8 14
11 -7 26 -18 12 -20 16 -7 16 9 0 20 -4 23 -10 8 -13 25 -13 25 -1 0 5 -8 11
-17 13 -15 3 -15 4 0 20 16 16 16 17 -3 23 -11 3 -30 3 -42 0 -22 -7 -22 -6
-6 11 14 15 21 16 43 6 15 -7 25 -8 25 -2 0 11 -7 13 -67 15 -33 1 -40 -2 -31
-12 8 -10 6 -13 -6 -13 -10 0 -15 4 -12 9 3 5 -5 12 -19 15 -14 4 -24 10 -24
14 3 20 -3 32 -16 32 -22 0 -18 -20 8 -43 31 -29 0 -16 -66 26 -30 19 -64 38
-78 42 -13 4 -27 12 -31 18 -7 11 -166 19 -205 10z m412 -123 c-3 -5 -12 -10
-18 -10 -7 0 -6 4 3 10 19 12 23 12 15 0z m99 -26 c3 -7 -6 -14 -20 -17 -13
-2 -24 0 -24 5 0 5 -4 7 -9 4 -5 -3 -14 1 -21 9 -10 13 -6 14 29 12 22 -1 43
-7 45 -13z"/>
<path d="M5449 6340 c-3 -36 -3 -72 0 -80 9 -25 18 69 11 108 -6 33 -7 30 -11
-28z"/>
<path d="M5170 6375 c0 -8 5 -15 10 -15 6 0 10 7 10 15 0 8 -4 15 -10 15 -5 0
-10 -7 -10 -15z"/>
<path d="M5200 6362 c0 -9 9 -23 20 -30 12 -7 18 -17 15 -21 -9 -15 78 1 102
18 33 23 30 45 -4 36 -16 -3 -29 -10 -31 -14 -4 -12 -50 -1 -63 15 -16 20 -39
17 -39 -4z"/>
<path d="M6143 6360 c-13 -5 -23 -17 -23 -27 0 -16 1 -16 13 0 6 9 23 21 37
26 14 5 18 10 10 10 -8 0 -25 -4 -37 -9z"/>
<path d="M6086 6334 c5 -19 4 -25 -5 -20 -7 5 -11 -2 -11 -18 0 -14 4 -26 10
-26 5 0 7 7 4 15 -4 11 1 15 17 15 17 0 20 3 11 9 -8 4 -12 16 -10 26 2 10 -3
20 -10 22 -9 4 -11 -2 -6 -23z"/>
<path d="M6147 6332 c-9 -10 -17 -29 -17 -41 0 -12 -4 -20 -9 -17 -5 3 -12 -4
-16 -17 -4 -13 -8 -17 -12 -9 -11 28 -23 9 -23 -38 0 -29 -5 -50 -11 -50 -6 0
-8 8 -4 19 4 15 0 19 -20 19 -19 0 -25 -6 -25 -22 0 -15 -3 -17 -9 -7 -5 8
-11 9 -15 3 -3 -5 1 -13 10 -16 25 -10 84 -7 84 4 0 6 18 10 40 10 22 0 40 -4
40 -10 0 -5 7 -10 16 -10 8 0 12 5 9 10 -4 6 7 10 24 10 17 0 31 -4 31 -10 0
-5 -9 -10 -20 -10 -11 0 -20 -4 -20 -10 0 -5 9 -10 20 -10 11 0 20 4 20 9 0 4
12 8 28 9 59 1 154 11 160 16 3 3 -29 6 -72 6 -49 0 -75 -4 -71 -10 7 -12 3
-12 -20 -4 -13 5 -14 9 -4 15 30 18 3 23 -143 28 -56 2 -46 21 10 21 36 0 54
5 67 20 20 22 71 27 77 8 4 -10 16 -10 57 0 61 14 141 16 141 3 0 -4 -16 -7
-35 -5 -24 1 -35 -2 -35 -11 0 -8 -10 -16 -22 -18 -39 -8 54 2 102 11 48 8 80
5 80 -7 0 -5 -25 -11 -56 -14 -58 -6 -90 -22 -63 -31 29 -9 119 -13 119 -5 0
5 -13 9 -30 9 -16 0 -30 5 -30 10 0 15 58 12 63 -2 2 -7 8 -9 13 -5 5 4 2 12
-5 16 -9 6 -10 11 -2 15 6 4 16 2 23 -3 40 -33 118 -91 123 -91 36 0 -102 166
-162 195 -21 10 -45 21 -54 26 -9 4 -88 8 -175 8 -145 2 -162 0 -177 -17z m43
-78 c0 -2 -11 -4 -25 -4 -14 0 -25 4 -25 9 0 4 11 6 25 3 14 -2 25 -6 25 -8z
m320 -4 c0 -5 -4 -10 -10 -10 -5 0 -10 5 -10 10 0 6 5 10 10 10 6 0 10 -4 10
-10z"/>
<path d="M6042 6295 c-6 -11 -14 -18 -18 -15 -4 3 -9 -5 -10 -17 -4 -26 7 -35
26 -22 12 8 12 12 2 16 -10 4 -9 8 4 17 9 7 15 19 12 27 -3 10 -7 8 -16 -6z"/>
<path d="M5420 6225 c0 -8 2 -15 4 -15 2 0 6 7 10 15 3 8 1 15 -4 15 -6 0 -10
-7 -10 -15z"/>
<path d="M6290 6220 c0 -5 7 -10 15 -10 8 0 15 5 15 10 0 6 -7 10 -15 10 -8 0
-15 -4 -15 -10z"/>
<path d="M5450 6177 c0 -23 4 -36 10 -32 13 8 13 35 0 55 -7 11 -10 5 -10 -23z"/>
<path d="M6590 6180 c0 -5 5 -10 11 -10 5 0 7 5 4 10 -3 6 -8 10 -11 10 -2 0
-4 -4 -4 -10z"/>
<path d="M5263 6167 c2 -12 35 -36 50 -37 17 0 5 16 -23 32 -19 11 -29 13 -27
5z"/>
<path d="M5335 6171 c-19 -8 -19 -8 0 -19 18 -10 18 -12 5 -24 -13 -11 -11
-17 17 -46 23 -24 33 -29 33 -18 0 9 5 16 10 16 6 0 10 -7 10 -16 0 -8 5 -12
10 -9 6 4 8 11 5 16 -4 5 -1 9 4 9 6 0 11 5 11 10 0 6 -11 10 -24 10 -28 0
-70 46 -62 67 3 7 4 13 3 12 -1 0 -11 -4 -22 -8z"/>
<path d="M6566 6154 c-3 -8 8 -12 30 -11 19 1 34 6 34 11 0 15 -59 14 -64 0z"/>
<path d="M4739 6154 c-1 -5 -1 -13 0 -18 1 -5 -5 -6 -14 -3 -8 4 -15 2 -15 -3
0 -15 -46 -23 -68 -11 -15 8 -23 8 -27 0 -4 -6 -24 -8 -49 -5 -22 3 -35 3 -28
0 19 -9 14 -27 -6 -22 -13 4 -18 -1 -19 -15 -1 -11 -8 -24 -15 -28 -10 -7 -10
-9 2 -9 13 0 13 -2 1 -9 -18 -11 -6 -45 13 -38 15 6 29 -64 19 -101 -8 -32 11
-27 46 13 32 37 47 43 53 23 3 -9 12 -8 32 6 16 10 37 15 49 12 14 -3 46 7 85
27 62 30 64 31 78 13 13 -19 14 -19 33 -2 14 13 28 16 46 12 18 -5 35 0 60 17
19 13 32 27 28 30 -11 11 38 8 112 -8 38 -8 80 -15 92 -15 30 0 40 20 14 27
-12 3 -21 9 -21 13 0 5 -26 14 -57 21 -32 7 -60 16 -63 20 -6 8 -173 31 -252
34 -32 1 -64 8 -72 14 -10 9 -16 9 -21 1 -5 -8 -11 -8 -21 1 -8 6 -15 8 -15 3z"/>
<path d="M6440 6151 c-39 -5 -42 -7 -20 -13 38 -12 57 -9 64 7 3 8 4 14 3 13
-1 0 -22 -4 -47 -7z"/>
<path d="M5956 6143 c-11 -11 -6 -23 9 -23 8 0 15 4 15 9 0 13 -16 22 -24 14z"/>
<path d="M6338 6138 c-16 -5 -28 -14 -28 -19 0 -6 5 -7 11 -4 6 4 26 7 45 7
38 0 42 3 17 16 -11 6 -29 6 -45 0z"/>
<path d="M6240 6114 c0 -13 -8 -15 -40 -12 -22 2 -40 1 -40 -2 0 -3 -18 -4
-40 -2 -22 2 -40 7 -40 11 0 4 -18 8 -40 9 -30 2 -40 -1 -40 -13 0 -11 11 -15
40 -15 38 0 54 -13 28 -23 -10 -4 -10 -8 0 -15 10 -7 7 -11 -15 -15 -35 -6
-51 2 -28 16 14 8 15 11 4 18 -24 15 -29 10 -29 -23 0 -31 2 -33 40 -35 37 -2
40 0 49 30 7 25 9 27 10 10 1 -13 6 -23 11 -23 6 0 10 10 10 23 0 13 3 17 8
10 11 -17 62 -28 62 -13 0 7 -7 10 -15 7 -8 -4 -17 -2 -20 3 -8 12 31 23 55
15 12 -4 27 -1 35 5 9 7 27 9 47 5 l33 -6 -30 26 c-34 29 -55 32 -55 9z"/>
<path d="M6353 6103 c9 -2 23 -2 30 0 6 3 -1 5 -18 5 -16 0 -22 -2 -12 -5z"/>
<path d="M6406 6089 c-10 -6 -47 -12 -81 -13 -35 0 -59 -4 -53 -7 7 -4 7 -9 0
-13 -6 -3 -13 -2 -17 4 -4 6 -11 8 -16 4 -5 -3 -7 -10 -4 -15 4 -5 -1 -9 -10
-9 -9 0 -14 4 -10 9 3 5 1 12 -5 16 -5 3 -10 -3 -10 -14 0 -23 -18 -32 -42
-20 -11 6 -22 4 -32 -7 -9 -8 -20 -13 -24 -10 -5 3 -19 -4 -31 -16 -17 -15
-26 -17 -34 -9 -6 6 -21 11 -34 11 -19 0 -23 -5 -23 -30 0 -32 -9 -37 -28 -18
-17 17 -15 57 3 64 22 9 20 74 -2 74 -9 0 -13 -3 -10 -6 3 -4 -3 -18 -13 -32
-15 -19 -20 -40 -20 -88 l0 -64 33 1 32 1 -30 8 -30 8 32 1 c17 0 35 6 38 11
3 6 18 10 33 10 l27 0 -25 20 -25 20 30 -6 c40 -7 207 27 270 56 51 23 202 40
191 21 -3 -4 7 -6 22 -4 22 4 24 2 12 -7 -13 -10 -12 -11 3 -6 17 5 45 -12 76
-47 47 -54 61 -73 61 -83 0 -7 7 -25 15 -40 8 -16 15 -37 15 -46 0 -9 5 -20
11 -24 6 -3 9 -15 6 -25 -3 -11 -1 -19 4 -19 5 0 9 -12 9 -26 0 -16 5 -24 13
-21 6 2 10 11 8 18 -2 8 -10 43 -19 79 -23 101 -106 240 -143 240 -4 0 -14 6
-21 14 -8 7 -39 21 -70 30 -65 19 -58 18 -82 5z"/>
<path d="M5376 6032 c-3 -6 -1 -14 5 -17 15 -10 25 3 12 16 -7 7 -13 7 -17 1z"/>
<path d="M6098 5862 c-39 -3 -52 -25 -22 -36 9 -3 14 -12 11 -19 -5 -15 10
-47 23 -47 6 0 10 7 10 15 0 8 9 15 20 15 11 0 20 -6 20 -13 0 -18 37 -47 60
-47 10 0 27 -8 37 -18 11 -11 30 -18 48 -17 31 2 65 -19 65 -41 0 -7 8 -26 18
-44 17 -31 31 -34 73 -16 11 5 20 -4 34 -34 19 -43 35 -52 35 -20 0 31 18 24
41 -15 12 -19 25 -35 29 -35 5 0 12 -10 16 -22 3 -12 15 -31 25 -42 17 -18 19
-18 19 -2 0 9 -4 25 -10 35 -13 26 -17 95 -5 100 6 3 20 -10 31 -27 17 -25 23
-28 28 -16 3 8 1 24 -4 34 -14 25 -13 57 2 62 21 7 -4 30 -28 25 -26 -5 -33 7
-9 17 24 9 17 20 -25 39 -23 11 -37 23 -33 29 4 7 -1 9 -15 6 -15 -4 -19 -2
-15 8 3 8 -2 15 -11 16 -9 0 -22 1 -28 2 -7 1 -19 9 -26 18 -7 10 -29 20 -50
23 -20 4 -46 11 -57 15 -93 43 -207 62 -307 52z"/>
<path d="M5405 5841 c-16 -10 -45 -32 -63 -49 -18 -17 -57 -50 -85 -74 -29
-24 -60 -52 -69 -63 -24 -28 -24 -106 0 -136 25 -30 52 -20 52 20 0 16 5 33
10 36 6 4 10 12 9 18 -5 38 33 99 51 81 13 -13 0 -56 -15 -50 -16 6 -33 -51
-25 -84 7 -29 75 -57 159 -66 30 -2 58 -7 63 -10 4 -3 19 -7 31 -10 13 -2 45
-15 72 -29 28 -14 56 -25 63 -25 7 0 15 -7 18 -15 4 -8 15 -15 26 -15 10 0 16
-4 13 -10 -8 -13 26 -13 59 0 36 13 75 81 77 132 1 24 -3 73 -9 108 -7 36 -14
82 -17 103 -10 67 -103 125 -161 99 -48 -23 -98 -15 -145 23 -50 40 -71 43
-114 16z m-5 -115 c0 -2 -7 -6 -15 -10 -8 -3 -15 -1 -15 4 0 6 7 10 15 10 8 0
15 -2 15 -4z m342 -37 c8 -23 13 -27 19 -17 6 9 9 4 9 -15 l0 -28 -27 26 c-34
30 -92 35 -94 8 -1 -12 -4 -9 -8 7 -9 29 16 49 62 50 22 0 30 -6 39 -31z
m-396 6 c-21 -16 -32 -13 -21 4 3 6 14 11 23 11 15 -1 15 -2 -2 -15z m185 -38
c-10 -9 -11 -8 -5 6 3 10 9 15 12 12 3 -3 0 -11 -7 -18z m219 -197 c0 -5 -4
-10 -10 -10 -5 0 -10 5 -10 10 0 6 5 10 10 10 6 0 10 -4 10 -10z"/>
<path d="M5164 5191 c-66 -24 -147 -76 -208 -134 -28 -28 -58 -47 -71 -47 -29
0 -71 -33 -61 -48 4 -7 20 -12 35 -12 16 0 45 -7 65 -15 20 -8 37 -15 38 -15
2 1 20 -6 41 -15 21 -9 46 -14 55 -11 9 3 37 -1 62 -8 32 -10 39 -15 25 -18
-11 -2 32 -5 96 -6 64 -1 129 -6 144 -12 15 -6 71 -9 124 -8 81 1 110 -3 186
-27 50 -16 100 -35 113 -43 52 -34 37 9 -58 168 -48 79 -119 159 -160 180 -15
8 -56 13 -107 11 -73 -1 -84 1 -102 20 -58 62 -122 74 -217 40z"/>
<path d="M4505 738 c3 -7 21 -24 40 -37 19 -13 32 -27 29 -32 -3 -5 3 -6 12
-2 10 3 15 2 12 -3 -3 -5 7 -22 23 -39 42 -44 36 -9 -6 39 -19 21 -35 35 -35
32 0 -4 -10 3 -22 14 -32 30 -59 44 -53 28z"/>
<path d="M6677 634 c-12 -12 -8 -34 6 -34 14 0 47 -35 47 -50 0 -6 7 -10 15
-10 23 0 18 13 -16 40 -17 14 -34 33 -38 43 -4 10 -10 15 -14 11z"/>
<path d="M6740 510 c-6 -11 -8 -25 -5 -30 3 -6 3 -10 -2 -10 -4 0 -16 -11 -25
-24 -17 -23 -17 -24 0 -21 9 1 16 7 15 13 -2 6 6 14 17 17 11 4 18 11 15 16
-3 5 -1 17 5 28 6 12 6 22 1 26 -6 3 -15 -4 -21 -15z"/>
<path d="M6650 400 c-18 -12 -2 -12 25 0 13 6 15 9 5 9 -8 0 -22 -4 -30 -9z"/>
<path d="M6588 383 c7 -3 16 -2 19 1 4 3 -2 6 -13 5 -11 0 -14 -3 -6 -6z"/>
<path d="M3103 353 c-48 -10 -19 -21 70 -26 136 -9 175 -16 223 -45 30 -18 49
-39 59 -64 19 -49 72 -105 108 -113 17 -5 27 -14 27 -26 0 -10 5 -19 11 -19 5
0 7 -4 4 -10 -4 -6 6 -7 25 -3 34 6 80 -12 80 -33 0 -9 57 -12 230 -13 127 -1
230 1 230 3 0 16 -77 35 -152 38 -72 4 -92 8 -110 25 -31 29 -145 90 -212 113
-57 19 -96 17 -96 -5 0 -8 -3 -21 -6 -29 -5 -12 -2 -15 12 -10 15 5 16 4 5 -4
-11 -8 -25 -6 -50 4 -54 23 -74 47 -76 96 -3 61 -3 60 -27 53 -16 -4 -19 -3
-9 3 17 12 8 17 -67 41 -58 19 -235 34 -279 24z m577 -199 c0 -8 -5 -12 -10
-9 -6 4 -8 11 -5 16 9 14 15 11 15 -7z m61 -12 c-13 -2 -27 0 -32 5 -6 6 3 7
23 4 28 -4 29 -6 9 -9z m-91 -32 c-8 -5 -19 -10 -25 -10 -5 0 -3 5 5 10 8 5
20 10 25 10 6 0 3 -5 -5 -10z m106 -6 c18 -14 18 -14 -6 -3 -31 14 -36 19 -24
19 6 0 19 -7 30 -16z m-71 -14 c13 -6 15 -9 5 -9 -8 0 -22 4 -30 9 -18 12 -2
12 25 0z m195 -25 c11 -13 10 -14 -4 -9 -9 3 -16 10 -16 15 0 13 6 11 20 -6z
m-70 -35 c8 -5 11 -12 7 -17 -5 -4 -12 -1 -17 7 -8 12 -13 13 -30 3 -27 -18
-39 -16 -16 2 23 17 35 18 56 5z m120 6 c0 -2 -11 -6 -25 -8 -14 -3 -25 -1
-25 3 0 5 11 9 25 9 14 0 25 -2 25 -4z m70 -13 c0 -5 -14 -8 -31 -9 -20 -1
-26 2 -17 7 16 11 48 12 48 2z"/>
<path d="M3645 33 c11 -3 26 -10 34 -17 11 -9 13 -8 9 4 -2 8 -18 16 -34 17
-18 1 -22 0 -9 -4z"/>
</g>
</svg>
