<?xml version="1.0" standalone="no"?>
<!DOCTYPE svg PUBLIC "-//W3C//DTD SVG 20010904//EN"
 "http://www.w3.org/TR/2001/REC-SVG-20010904/DTD/svg10.dtd">
<svg version="1.0" xmlns="http://www.w3.org/2000/svg"
 width="1024.000000pt" height="1024.000000pt" viewBox="0 0 1024.000000 1024.000000"
 preserveAspectRatio="xMidYMid meet">
<metadata>
Created by potrace 1.14, written by Peter Selinger 2001-2017
</metadata>
<g transform="translate(0.000000,1024.000000) scale(0.100000,-0.100000)"
fill="#000000" stroke="none">
<path d="M0 5120 l0 -5120 1479 0 1479 0 28 88 c26 79 29 100 29 229 0 128 2
145 20 165 126 145 173 247 192 413 3 33 13 57 27 70 45 43 269 125 382 140
102 13 131 16 234 26 58 5 119 7 136 4 38 -7 160 -86 243 -158 8 -6 27 -21 43
-33 15 -11 25 -24 21 -28 -4 -4 0 -4 10 0 9 3 17 2 17 -4 0 -5 15 -19 33 -29
35 -21 62 -43 140 -115 29 -26 57 -48 62 -48 17 0 129 -112 152 -153 l23 -37
-44 -22 c-24 -11 -51 -34 -60 -49 -23 -39 -20 -131 6 -159 10 -10 18 -21 18
-24 0 -15 -44 16 -115 81 -114 106 -240 164 -384 178 -121 11 -176 42 -240
133 -24 35 -41 34 -41 -2 0 -13 -9 -31 -20 -41 -18 -16 -23 -17 -45 -5 -14 7
-33 21 -43 30 -44 41 -87 33 -119 -20 -32 -55 -104 -34 -131 39 -6 14 -13 35
-17 46 -4 11 -9 15 -12 8 -8 -20 17 -92 41 -120 21 -24 32 -28 79 -28 38 0 61
-5 74 -17 35 -32 133 -60 187 -54 26 3 53 9 60 14 24 20 74 23 111 8 21 -9 57
-16 80 -16 49 0 141 -16 170 -29 11 -5 43 -19 70 -32 95 -43 228 -166 244
-226 7 -25 28 -55 61 -86 31 -29 50 -56 50 -70 0 -33 11 -67 21 -67 12 0 12
52 0 82 -5 13 -27 41 -48 63 -44 44 -78 93 -71 100 3 3 19 0 37 -6 17 -6 67
-9 110 -8 66 3 84 8 103 26 l24 23 55 -21 c30 -12 65 -27 78 -33 14 -6 85 -11
172 -11 l149 0 0 -108 0 -107 358 2 357 3 3 36 c3 41 -16 56 -48 39 -13 -7
-19 -6 -24 5 -7 18 -37 20 -55 3 -10 -11 -12 -7 -9 17 3 25 -1 30 -20 30 -12
0 -31 8 -42 18 -11 9 -25 17 -31 17 -6 0 -25 6 -42 14 -35 15 -154 41 -262 57
-38 5 -74 14 -79 19 -14 14 -74 12 -78 -1 -5 -16 -220 -24 -283 -11 -86 18
-160 41 -163 52 -2 5 -9 10 -17 10 -7 0 -19 7 -26 16 -11 14 -10 16 6 13 11
-2 26 0 34 5 7 5 16 5 20 0 3 -5 20 -17 37 -26 27 -15 33 -16 52 -2 12 8 29
39 38 69 15 47 16 60 4 95 -7 22 -11 42 -9 43 2 2 31 14 64 26 52 20 89 24
290 32 127 5 291 11 366 14 101 5 159 2 230 -10 90 -15 277 -72 329 -101 50
-26 137 -64 150 -64 7 0 3 9 -10 20 -13 11 -28 20 -35 20 -6 0 -56 22 -110 50
-54 27 -103 50 -109 50 -6 0 -24 7 -39 15 -39 20 -177 48 -267 53 -92 5 -595
-16 -705 -29 -81 -11 -141 -32 -161 -57 -9 -12 -22 -11 -86 8 -42 13 -86 31
-99 41 -24 18 -24 18 -2 12 43 -11 107 7 146 40 32 27 39 40 44 84 5 48 4 54
-25 82 -29 29 -35 31 -114 32 -80 2 -78 2 41 11 69 5 129 12 135 17 6 5 27 12
46 16 19 4 49 13 65 20 69 28 142 55 170 61 17 4 35 10 40 14 6 4 64 20 130
34 251 57 256 59 242 73 -12 11 -346 -55 -389 -78 -10 -5 -22 -9 -27 -9 -5 0
-22 -5 -38 -12 -15 -6 -30 -12 -33 -13 -18 -6 -68 -27 -85 -36 -19 -9 -92 -31
-165 -49 -19 -5 -70 -10 -112 -12 -43 -2 -78 -6 -78 -10 0 -4 -13 1 -30 10
l-29 17 34 12 c19 6 56 15 82 18 26 4 71 13 98 20 28 7 76 16 108 20 31 3 57
10 57 14 0 4 28 13 62 19 35 6 64 16 66 22 2 5 8 10 13 10 6 0 29 9 52 19 24
11 56 23 72 27 17 4 35 10 40 15 10 8 117 22 275 38 54 5 79 4 90 -5 9 -7 67
-14 150 -18 156 -7 160 -7 160 -16 0 -4 14 -10 31 -14 17 -3 43 -15 59 -26 15
-11 33 -20 39 -20 6 0 11 -3 11 -7 0 -5 23 -21 51 -38 28 -16 57 -35 64 -42 7
-7 26 -15 41 -19 16 -4 31 -10 34 -14 3 -3 32 -4 65 0 l60 5 -59 7 c-33 4 -62
11 -65 17 -3 5 -19 13 -34 16 -15 4 -27 11 -27 17 0 5 -4 6 -10 3 -6 -3 -10
-1 -10 4 0 6 -7 11 -15 11 -9 0 -18 7 -21 15 -4 8 -10 15 -15 15 -4 0 -38 21
-74 46 -36 25 -65 42 -65 37 0 -4 -6 -1 -13 8 -7 9 -28 24 -49 33 -31 15 -69
17 -255 18 -122 0 -235 -4 -258 -10 -22 -6 -66 -14 -98 -18 -32 -3 -93 -20
-135 -36 -143 -56 -247 -90 -317 -104 -143 -30 -221 -43 -248 -44 -16 0 -26
-4 -23 -9 8 -12 -164 -30 -191 -20 -37 14 -26 26 20 24 23 -1 68 4 100 11 134
32 172 94 102 167 -20 21 -35 46 -35 60 0 14 -3 38 -6 54 -5 27 -2 32 33 47
21 9 57 27 81 41 46 26 119 49 222 71 247 54 325 66 445 70 72 3 139 9 150 14
11 5 55 12 98 15 42 4 77 10 77 14 0 6 81 13 171 14 20 1 54 -4 75 -10 22 -6
59 -17 84 -23 44 -12 160 -61 190 -80 8 -6 26 -16 40 -22 14 -7 43 -23 65 -37
22 -14 65 -38 95 -54 30 -16 74 -42 98 -58 24 -16 47 -29 52 -29 5 0 15 -6 22
-13 7 -7 36 -27 65 -46 63 -39 120 -82 151 -113 46 -46 40 -101 -14 -124 -18
-8 -41 -26 -51 -40 -39 -60 -35 -223 7 -302 11 -20 20 -44 20 -54 0 -9 5 -20
10 -23 13 -8 13 -55 1 -55 -5 0 -12 -8 -16 -19 -5 -17 -65 -53 -112 -66 -26
-7 -86 -61 -102 -92 -6 -12 -11 -41 -11 -65 -1 -24 -7 -72 -15 -108 -8 -36
-14 -71 -15 -77 0 -10 355 -13 1745 -13 l1745 0 0 5120 0 5120 -5120 0 -5120
0 0 -5120z m5200 1801 c0 -6 11 -22 25 -36 21 -24 29 -26 65 -20 37 6 40 5 40
-16 0 -12 -7 -31 -17 -41 -15 -17 -15 -18 6 -18 13 0 39 16 58 35 19 19 39 35
44 35 5 0 9 -20 9 -45 0 -25 5 -45 10 -45 6 0 10 5 10 11 0 15 69 109 81 109
14 0 11 -34 -6 -56 -20 -26 -19 -31 10 -36 19 -4 29 2 48 31 13 20 27 45 31
55 12 34 28 2 31 -62 1 -44 7 -65 23 -82 16 -18 22 -19 29 -8 9 15 53 48 64
48 4 0 10 -12 14 -27 l6 -27 24 30 c23 27 24 28 25 7 0 -12 -7 -28 -15 -37 -8
-8 -15 -22 -15 -31 0 -14 6 -16 28 -10 36 8 113 45 130 62 8 7 18 11 23 7 10
-6 -2 -34 -27 -59 -24 -24 -13 -27 35 -10 23 8 39 10 36 5 -10 -15 0 -12 24 9
14 12 19 25 15 37 -6 17 -5 17 9 -1 21 -26 21 -29 -8 -63 l-25 -30 47 -4 c40
-4 52 -1 75 20 32 29 44 24 59 -28 7 -22 18 -40 26 -40 7 0 13 3 13 8 0 4 11
15 24 24 l23 17 -5 -50 c-5 -59 7 -63 34 -11 l19 37 3 -64 c3 -63 3 -63 23
-45 16 15 22 16 29 5 4 -8 15 -11 24 -8 22 9 29 -13 17 -46 -15 -38 8 -36 54
4 l35 31 2 -53 c1 -30 2 -62 1 -71 0 -24 12 -23 51 7 40 30 56 32 56 5 0 -31
32 -90 50 -90 8 0 24 10 34 22 l19 22 10 -25 c5 -13 11 -51 14 -84 8 -83 17
-105 47 -105 22 0 25 -6 36 -72 6 -40 15 -84 20 -98 5 -14 14 -50 19 -80 16
-85 32 -159 50 -229 13 -54 20 -66 44 -75 27 -10 28 -13 22 -65 -3 -30 -8 -58
-11 -63 -3 -5 -7 -77 -9 -161 -2 -83 -7 -192 -11 -242 -6 -86 -7 -88 -24 -68
-9 12 -21 18 -27 15 -17 -12 -73 -187 -73 -229 0 -28 -17 -65 -36 -76 -8 -4
-14 -18 -13 -30 0 -40 -13 -81 -37 -114 -13 -17 -24 -35 -24 -39 0 -4 -8 -12
-17 -19 -15 -11 -22 -8 -50 23 -26 28 -36 33 -45 24 -8 -8 -8 -12 -1 -12 6 0
13 -9 16 -21 4 -15 2 -19 -8 -15 -9 3 -12 0 -8 -10 7 -18 13 -18 27 1 7 9 16
12 25 6 11 -7 10 -12 -5 -29 -38 -41 -41 -49 -36 -80 2 -20 0 -32 -7 -32 -13
0 -15 62 -1 76 5 5 6 15 0 23 -11 19 -25 -69 -15 -106 5 -21 8 -24 16 -12 7
11 9 10 10 -6 2 -42 -3 -80 -13 -90 -7 -7 -9 -4 -6 10 4 15 0 21 -12 22 -13 1
-16 -4 -12 -20 2 -12 9 -27 14 -34 6 -8 5 -25 -3 -48 -15 -41 -29 -46 -29 -9
l0 27 -20 -26 c-11 -14 -20 -29 -20 -34 0 -4 4 -2 9 6 7 11 11 10 20 -6 8 -17
6 -25 -10 -44 -12 -14 -16 -25 -10 -27 30 -10 -4 -48 -37 -43 -7 1 -11 -4 -10
-11 2 -7 -4 -13 -12 -13 -11 0 -14 9 -12 30 2 27 2 28 -9 10 -7 -11 -31 -37
-53 -57 -23 -20 -36 -37 -29 -38 6 0 25 14 41 30 34 33 42 37 42 16 0 -8 6
-16 13 -19 18 -6 -25 -61 -52 -65 -12 -2 -19 -7 -16 -12 9 -15 -33 -50 -59
-50 -13 0 -26 -4 -28 -8 -1 -5 -30 -16 -63 -24 -38 -9 -59 -19 -57 -28 2 -8
-4 -11 -18 -7 -11 3 -20 1 -20 -4 0 -17 -85 -30 -164 -25 -61 4 -71 3 -41 -4
22 -5 58 -10 80 -11 31 -2 25 -4 -25 -9 -36 -3 -78 -3 -95 2 -16 4 -43 8 -58
8 -20 0 -30 6 -34 20 -3 11 -10 20 -15 20 -5 0 -6 5 -3 10 3 6 0 10 -9 10 -8
0 -20 14 -28 30 -7 17 -16 30 -20 30 -5 0 -8 7 -8 15 0 17 -45 60 -63 60 -7 0
-18 4 -25 8 -15 10 -117 11 -132 2 -5 -3 -7 -18 -4 -32 6 -22 4 -25 -10 -20
-9 4 -16 2 -16 -2 0 -5 7 -11 15 -15 18 -6 20 -26 3 -26 -6 0 -8 3 -5 7 4 4
-5 13 -20 20 -16 8 -46 25 -68 38 -59 35 -126 66 -160 72 -16 3 -35 10 -41 14
-12 10 -186 39 -289 49 -38 4 -61 8 -50 9 11 1 31 9 45 17 l25 15 -25 -6 c-14
-4 -41 -10 -60 -15 -48 -12 -284 -4 -288 9 -4 13 -29 15 -34 2 -4 -10 -220 6
-228 18 -3 4 -38 13 -77 20 -40 7 -75 17 -79 22 -3 5 -16 9 -28 9 -13 0 -29 7
-36 15 -7 9 -19 14 -26 11 -16 -6 -28 10 -18 25 4 8 9 7 15 -2 6 -10 9 -10 9
-2 0 6 -4 14 -9 17 -5 3 -8 23 -6 44 1 20 1 30 -2 21 -3 -11 -11 -15 -23 -12
-22 6 -44 86 -38 138 2 19 0 36 -5 38 -10 3 -16 282 -6 317 7 24 7 24 9 -5 l2
-30 7 30 c4 17 3 33 -2 36 -5 4 -7 28 -4 55 8 77 35 242 41 253 4 5 8 101 11
213 6 231 17 421 22 396 3 -10 9 -18 14 -18 13 0 61 52 54 58 -3 3 -12 -3 -20
-14 -14 -19 -14 -19 -14 1 0 20 21 55 33 55 3 0 6 -7 6 -15 0 -8 7 -15 16 -15
14 0 16 12 13 84 -3 65 -1 82 9 79 7 -3 12 1 10 8 -2 8 2 13 9 12 6 -2 14 18
18 49 5 34 10 46 16 37 5 -8 9 -9 9 -3 0 5 -5 15 -12 22 -9 9 -6 16 11 31 13
11 20 25 16 30 -3 6 -2 11 4 11 5 0 13 9 16 20 3 11 12 20 20 20 7 0 16 12 20
27 3 15 10 30 15 33 5 3 11 36 14 74 3 37 7 71 10 74 3 3 19 5 36 4 20 0 30 4
30 14 0 8 9 14 23 14 20 -1 21 -2 5 -14 -10 -7 -18 -18 -18 -25 0 -6 -4 -11
-10 -11 -5 0 -10 -4 -10 -10 0 -17 20 -11 27 8 4 9 11 20 15 23 12 8 18 59 7
59 -5 0 -9 -4 -9 -10 0 -5 -4 -10 -10 -10 -10 0 -2 59 10 73 4 5 10 1 13 -7 4
-9 2 -16 -3 -16 -6 0 -10 -4 -10 -9 0 -5 9 -7 20 -4 14 4 20 0 20 -11 0 -9 5
-16 11 -16 5 0 8 4 4 9 -3 5 -1 12 4 15 5 3 23 34 41 68 41 80 49 89 56 60 9
-33 31 -27 39 11 4 17 9 35 12 39 5 9 53 -12 53 -23 0 -4 92 -9 203 -10 126
-3 209 -8 218 -15 8 -6 40 -16 71 -23 32 -7 60 -17 63 -22 4 -5 21 -9 38 -9
43 1 74 40 55 70 -7 11 -24 23 -38 27 -14 3 -31 10 -37 16 -35 27 -442 24
-494 -4 -24 -13 -49 -5 -49 15 0 8 -5 16 -11 18 -7 2 -4 15 8 36 15 27 24 32
56 32 21 0 50 8 65 17 30 19 72 62 72 74 0 5 18 13 40 19 22 6 45 20 51 32 18
33 60 68 83 68 12 0 30 7 40 15 23 17 36 19 36 6z m-450 -326 c0 -8 -4 -15 -9
-15 -5 0 -11 7 -15 15 -3 9 0 15 9 15 8 0 15 -7 15 -15z m-691 -2402 c0 -25
-1 -26 -9 -8 -12 27 -12 35 0 35 6 0 10 -12 9 -27z m222 -152 c68 -17 165 -34
214 -36 11 0 40 -4 65 -7 25 -4 140 -9 255 -12 212 -5 333 -21 454 -62 53 -17
134 -54 141 -64 3 -4 15 -10 26 -14 12 -4 32 -15 45 -26 28 -23 32 -26 81 -62
20 -16 63 -53 94 -83 32 -30 62 -55 67 -55 4 0 5 -4 2 -10 -4 -6 -12 -6 -23
-1 -9 5 -57 21 -107 36 -49 14 -100 31 -112 37 -27 13 -46 1 -20 -13 9 -6 17
-15 17 -20 0 -6 25 -35 55 -64 54 -54 57 -69 10 -63 -56 7 -22 -20 106 -83
139 -69 222 -130 203 -149 -10 -10 -174 19 -232 41 -32 12 -32 13 -32 -20 0
-28 18 -69 70 -154 19 -32 21 -42 11 -63 -25 -57 -9 -91 51 -103 l31 -7 -2
-67 c-3 -93 2 -104 52 -112 62 -9 127 -27 127 -35 0 -3 -7 -28 -16 -54 -9 -26
-14 -49 -12 -52 3 -2 16 -1 29 4 13 5 37 12 53 16 27 7 28 5 22 -18 -3 -14
-22 -53 -42 -87 -26 -43 -33 -64 -25 -72 7 -7 8 -37 4 -84 -6 -75 -3 -84 24
-57 22 22 67 14 71 -13 3 -19 -96 -334 -117 -373 -5 -9 -12 -30 -16 -49 -4
-18 -13 -44 -21 -59 -8 -15 -14 -33 -14 -40 0 -8 -6 -28 -14 -45 -8 -18 -22
-58 -32 -90 l-17 -59 -36 5 c-20 3 -58 11 -86 17 -27 6 -144 15 -260 20 -136
5 -229 13 -265 23 -188 53 -267 67 -379 67 -117 0 -186 -19 -227 -61 -31 -32
-64 -121 -64 -172 0 -45 34 -117 55 -117 8 0 15 -5 15 -10 0 -6 3 -9 8 -8 13
4 52 -13 52 -23 0 -5 -8 -17 -17 -28 -10 -10 -29 -31 -43 -47 -30 -34 -96 -90
-127 -107 -64 -35 -190 -113 -201 -124 -17 -16 -33 -16 -56 0 -16 12 -15 16
13 74 87 175 111 287 118 553 8 329 -13 465 -89 565 -47 62 -104 88 -179 83
-51 -4 -64 -9 -94 -38 -19 -19 -35 -40 -35 -47 0 -7 -4 -13 -9 -13 -19 0 -24
-65 -25 -317 -1 -195 -4 -265 -13 -274 -7 -7 -13 -27 -13 -43 l0 -31 -20 25
c-10 14 -24 45 -30 70 -7 25 -17 56 -23 69 -8 16 -12 114 -12 310 0 272 1 290
24 376 14 50 28 92 31 95 4 3 13 28 20 55 7 28 16 52 20 55 6 5 20 61 40 160
5 25 9 76 9 113 1 40 5 66 10 62 6 -3 15 4 21 15 9 16 21 20 65 20 76 0 155
18 155 36 0 11 22 14 113 14 88 0 118 4 136 16 l23 16 -27 18 -27 18 49 17
c26 9 66 25 88 35 22 10 58 26 80 36 74 32 109 79 64 86 -16 2 -3 12 47 38
126 64 156 109 103 152 -27 23 -21 47 16 68 19 11 31 26 33 43 4 34 -22 84
-48 92 -16 5 -20 14 -18 33 3 25 0 27 -47 34 -54 8 -89 37 -78 65 9 24 -25 43
-79 43 l-48 0 0 35 c0 35 0 35 -45 35 -50 0 -56 9 -22 34 21 16 19 17 -47 12
-50 -3 -72 -8 -78 -20 -10 -18 -63 -22 -73 -6 -10 16 -38 12 -32 -4 8 -19 -23
-10 -40 12 -14 17 -18 92 -5 92 5 0 42 -9 83 -19z m-41 -137 c0 -8 -4 -12 -10
-9 -5 3 -10 10 -10 16 0 5 5 9 10 9 6 0 10 -7 10 -16z m-1236 -843 c-6 -6 -24
19 -24 34 1 6 7 1 15 -9 8 -11 12 -22 9 -25z m46 -19 c0 -4 26 -21 58 -37 31
-17 59 -33 62 -36 3 -4 24 -12 48 -18 38 -11 42 -15 36 -34 -12 -40 -94 -216
-117 -252 -42 -67 -98 -136 -141 -175 -159 -145 -236 -254 -236 -338 l0 -25
-112 7 c-278 16 -471 25 -477 22 -3 -2 -91 -9 -196 -15 -229 -14 -521 -54
-695 -96 -30 -8 -76 -17 -103 -20 -26 -4 -50 -11 -53 -16 -6 -11 -44 -12 -44
-1 0 16 115 152 213 251 96 97 311 271 336 271 6 0 11 4 11 9 0 5 9 13 20 16
11 3 26 12 33 19 15 15 30 23 191 104 69 34 131 62 138 62 7 0 26 7 41 15 15
8 43 17 63 21 19 3 36 10 39 14 3 5 24 11 48 15 23 4 49 11 58 15 19 11 155
36 314 60 66 10 147 25 180 32 64 15 187 71 206 94 8 10 20 7 59 -17 27 -17
66 -32 87 -35 l38 -6 -29 16 c-92 51 -106 61 -106 73 0 7 7 13 15 13 8 0 15
-4 15 -8z m363 -144 c10 -5 87 -12 170 -15 l152 -5 53 -36 c58 -39 68 -37 83
20 6 23 7 10 3 -42 -3 -41 -9 -79 -14 -85 -4 -5 -11 -28 -15 -50 -3 -22 -13
-53 -20 -70 -22 -51 -53 -147 -72 -220 -26 -103 -25 -524 2 -640 19 -83 38
-131 69 -178 15 -22 17 -37 11 -85 -4 -31 -10 -61 -15 -67 -4 -5 -11 -26 -15
-45 -7 -37 -42 -139 -69 -201 -14 -35 -19 -37 -78 -47 -99 -17 -202 -42 -212
-52 -6 -6 -17 -10 -26 -10 -8 -1 -33 -9 -55 -20 -37 -18 -41 -18 -52 -2 -7 9
-17 22 -22 28 -10 12 -121 239 -121 248 0 2 -20 48 -45 101 -54 114 -108 196
-167 251 -99 94 -212 246 -229 307 -12 47 5 137 26 137 7 0 17 14 20 32 18 80
88 171 205 268 30 25 69 60 85 79 17 19 38 41 48 50 9 8 17 21 17 28 0 7 3 13
8 13 18 0 107 203 139 319 2 10 16 12 61 6 31 -4 65 -11 75 -17z m2857 -243
c0 -4 -6 -18 -14 -34 -17 -32 -13 -40 37 -69 57 -33 163 -45 277 -31 52 6 100
15 107 20 7 7 33 0 75 -19 34 -16 90 -40 123 -52 33 -13 69 -27 80 -31 34 -15
284 -79 350 -90 29 -5 -95 -21 -196 -26 -122 -5 -156 0 -344 58 -87 27 -188
44 -209 36 -11 -5 -16 -19 -16 -49 0 -78 -49 -274 -87 -348 -7 -14 -13 -29
-13 -33 0 -5 -11 -33 -26 -62 -14 -30 -58 -130 -98 -222 -82 -187 -81 -186
-164 -159 -26 8 -67 18 -92 22 -25 4 -49 10 -55 14 -5 4 -37 12 -70 19 -106
21 -118 34 -91 94 8 18 28 73 45 122 43 129 97 280 103 291 3 5 9 24 13 42 4
18 13 45 21 60 8 15 14 34 14 42 0 8 6 27 14 41 7 15 19 50 27 78 7 28 16 51
21 51 4 0 8 6 8 14 0 17 47 135 73 183 15 28 31 37 75 42 6 0 12 -1 12 -4z
m-2124 -362 c24 -16 43 -34 44 -40 0 -7 3 -13 8 -13 9 0 35 -57 57 -125 22
-67 32 -440 16 -575 -7 -52 -12 -104 -12 -115 0 -10 -4 -24 -8 -30 -5 -5 -11
-30 -15 -55 -4 -24 -10 -49 -15 -55 -4 -5 -14 -30 -21 -55 -8 -25 -17 -47 -20
-50 -3 -3 -14 -22 -24 -43 -17 -33 -21 -35 -35 -23 -48 42 -92 51 -233 48
l-138 -2 12 27 c6 16 17 42 24 58 7 17 16 44 20 60 4 17 10 35 14 40 4 6 13
37 20 70 7 33 17 67 21 75 4 9 10 44 14 80 3 35 8 67 11 71 12 19 17 106 18
314 1 254 7 280 69 338 24 22 39 27 80 27 37 0 60 -7 93 -27z m849 -578 c61
-13 143 -32 182 -43 57 -16 104 -20 216 -20 140 0 316 -17 349 -33 9 -5 49
-13 89 -19 40 -6 76 -14 79 -19 3 -4 27 -11 53 -15 26 -4 62 -14 80 -21 31
-14 29 -14 -46 -15 -43 0 -110 -6 -150 -14 -40 -8 -144 -17 -232 -20 -88 -3
-180 -11 -205 -17 -25 -6 -78 -17 -118 -25 -41 -7 -90 -18 -110 -23 -20 -5
-66 -17 -102 -26 -36 -10 -85 -26 -110 -37 -50 -23 -54 -23 -340 47 -88 21
-110 46 -110 126 0 57 28 139 48 139 10 0 52 -126 52 -153 0 -10 -7 -20 -16
-24 -27 -10 54 -33 119 -33 58 0 83 9 125 44 18 16 22 30 22 74 0 48 -4 58
-34 88 -34 34 -35 34 -127 35 -88 1 -92 2 -64 14 50 23 222 18 350 -10z m1775
-238 c39 -30 50 -61 50 -137 0 -87 -9 -110 -33 -86 -8 9 -26 20 -39 26 -26 11
-61 32 -68 41 -3 4 -15 9 -28 13 -12 4 -19 12 -16 18 4 7 2 8 -4 4 -10 -6
-127 49 -158 75 -6 5 -29 15 -50 23 -38 14 -37 15 71 16 61 1 121 6 135 10 39
12 123 11 140 -3z m-2994 -852 c35 -33 69 -41 102 -25 15 8 31 13 36 11 5 -1
6 6 2 15 -3 9 11 -1 31 -23 l38 -38 -27 -10 c-15 -5 -30 -13 -34 -17 -4 -5
-31 -8 -60 -8 -66 0 -169 42 -161 64 4 11 1 13 -10 9 -12 -5 -14 -3 -8 8 27
47 51 51 91 14z"/>
<path d="M4780 6665 c-7 -9 -8 -15 -2 -15 5 0 12 7 16 15 3 8 4 15 2 15 -2 0
-9 -7 -16 -15z"/>
<path d="M4590 6491 c0 -5 5 -13 10 -16 6 -3 10 -2 10 4 0 5 -4 13 -10 16 -5
3 -10 2 -10 -4z"/>
<path d="M4634 6479 c-9 -15 -2 -18 20 -9 17 6 18 7 3 13 -9 3 -19 2 -23 -4z"/>
<path d="M4675 6450 c-3 -5 -1 -10 4 -10 6 0 11 5 11 10 0 6 -2 10 -4 10 -3 0
-8 -4 -11 -10z"/>
<path d="M4640 6435 c0 -10 29 -24 34 -17 3 6 -3 12 -14 15 -11 3 -20 4 -20 2z"/>
<path d="M4615 6420 c3 -5 11 -10 16 -10 6 0 7 5 4 10 -3 6 -11 10 -16 10 -6
0 -7 -4 -4 -10z"/>
<path d="M4559 6397 c5 -5 19 -7 32 -5 20 3 19 5 -9 9 -20 3 -29 2 -23 -4z"/>
<path d="M4818 6393 c-16 -2 -28 -8 -28 -13 0 -4 -12 -11 -26 -14 -52 -14
-165 -106 -227 -187 -46 -61 -30 -52 46 25 105 104 179 151 264 165 97 17 146
4 285 -76 12 -6 23 -15 27 -20 3 -5 17 -14 31 -21 43 -22 71 -39 83 -51 13
-13 37 -15 37 -2 0 5 -20 19 -45 31 -25 12 -51 27 -58 34 -17 16 -135 90 -177
111 -35 17 -157 28 -212 18z"/>
<path d="M6162 6334 c-26 -18 -28 -37 -6 -58 13 -13 42 -16 182 -14 160 3 169
2 212 -22 25 -13 49 -30 53 -37 4 -7 15 -13 22 -13 8 0 15 -5 15 -10 0 -6 11
-15 25 -20 14 -5 25 -14 25 -20 0 -5 5 -10 10 -10 6 0 10 7 10 15 0 8 -4 15
-9 15 -5 0 -12 8 -15 18 -8 25 -99 118 -132 135 -50 25 -130 37 -252 37 -90 0
-123 -4 -140 -16z"/>
<path d="M4411 6254 c0 -11 3 -14 6 -6 3 7 2 16 -1 19 -3 4 -6 -2 -5 -13z"/>
<path d="M4380 6215 c0 -8 5 -15 10 -15 6 0 10 7 10 15 0 8 -4 15 -10 15 -5 0
-10 -7 -10 -15z"/>
<path d="M4350 6160 c0 -5 5 -10 11 -10 5 0 7 5 4 10 -3 6 -8 10 -11 10 -2 0
-4 -4 -4 -10z"/>
<path d="M4743 6136 c4 -9 0 -15 -11 -14 -9 0 -32 -5 -49 -10 -20 -6 -33 -7
-33 -1 0 17 -25 9 -39 -13 -12 -19 -14 -20 -23 -5 -13 24 -25 21 -36 -10 -6
-16 -11 -22 -11 -15 -1 19 -19 14 -32 -9 -8 -15 -8 -19 0 -15 6 4 14 0 17 -8
5 -12 21 -16 69 -16 35 0 66 4 69 9 5 8 55 18 136 27 19 2 50 6 68 9 38 7 129
-4 114 -14 -5 -3 36 -7 92 -7 57 -1 119 -7 140 -14 20 -6 44 -9 53 -5 23 8
-31 41 -95 56 -26 7 -51 15 -57 20 -13 9 -176 28 -277 31 -43 2 -78 6 -78 11
0 4 -5 7 -11 7 -6 0 -9 -6 -6 -14z"/>
<path d="M6370 6079 c-30 -5 -64 -13 -75 -18 -30 -14 -184 -61 -199 -61 -8 0
-19 -7 -27 -16 -11 -13 -9 -15 17 -9 39 8 128 34 183 53 25 8 75 21 113 28 57
11 75 11 116 -1 81 -24 172 -126 188 -210 3 -19 10 -35 14 -35 4 0 11 -21 15
-47 4 -27 10 -42 13 -34 5 15 -16 120 -28 136 -4 6 -13 26 -19 46 -6 19 -30
56 -54 81 -72 79 -149 105 -257 87z"/>
<path d="M4765 6000 c3 -5 8 -10 11 -10 2 0 4 5 4 10 0 6 -5 10 -11 10 -5 0
-7 -4 -4 -10z"/>
<path d="M4808 6003 c6 -2 18 -2 25 0 6 3 1 5 -13 5 -14 0 -19 -2 -12 -5z"/>
<path d="M4270 5958 c0 -32 -3 -39 -10 -28 -8 13 -10 12 -10 -2 0 -10 7 -18
15 -18 11 0 15 12 15 45 0 25 -2 45 -5 45 -3 0 -5 -19 -5 -42z"/>
<path d="M6066 5851 c-11 -18 41 -38 128 -49 50 -6 93 -17 97 -24 5 -7 20 -14
35 -15 15 -1 30 -6 33 -11 3 -4 25 -14 49 -20 23 -7 42 -17 42 -22 0 -6 7 -10
16 -10 14 0 15 -2 3 -17 -13 -16 -12 -17 3 -5 14 12 22 10 50 -10 18 -13 35
-25 38 -28 3 -3 18 -11 33 -19 16 -9 26 -20 22 -28 -3 -9 0 -11 7 -7 6 4 17
-1 24 -11 15 -20 47 -13 38 9 -3 8 -1 17 5 21 6 3 11 13 11 21 0 10 -7 13 -25
8 -15 -4 -25 -2 -25 5 0 6 5 11 10 11 6 0 10 7 10 16 0 10 -6 14 -15 10 -8 -3
-15 -1 -15 4 0 5 -9 12 -21 15 -13 4 -18 12 -15 22 5 11 1 14 -13 10 -14 -3
-18 -1 -14 9 5 14 -12 19 -51 15 -11 -1 -17 1 -13 5 11 12 -20 32 -59 39 -21
4 -48 10 -59 15 -75 34 -151 50 -234 50 -49 0 -92 -4 -95 -9z"/>
<path d="M5414 5727 c-10 -6 -26 -19 -34 -30 -8 -11 -36 -43 -62 -70 -52 -53
-61 -89 -29 -107 35 -18 57 -11 99 33 22 23 54 55 71 70 33 30 36 42 22 80
-11 28 -40 39 -67 24z"/>
<path d="M6350 5707 c14 -7 24 -19 23 -25 -3 -13 13 -16 21 -4 8 14 -8 30 -39
37 l-30 7 25 -15z"/>
<path d="M5640 5635 c-30 -49 -38 -134 -15 -168 14 -22 25 -27 56 -27 29 0 41
5 46 18 4 9 11 20 17 24 18 12 10 147 -10 169 -28 31 -69 25 -94 -16z"/>
<path d="M6391 5634 c0 -11 3 -14 6 -6 3 7 2 16 -1 19 -3 4 -6 -2 -5 -13z"/>
<path d="M4098 5623 c7 -3 16 -2 19 1 4 3 -2 6 -13 5 -11 0 -14 -3 -6 -6z"/>
<path d="M6560 5616 c0 -2 7 -7 16 -10 8 -3 12 -2 9 4 -6 10 -25 14 -25 6z"/>
<path d="M6500 5571 c0 -5 5 -13 10 -16 6 -3 10 -2 10 4 0 5 -4 13 -10 16 -5
3 -10 2 -10 -4z"/>
<path d="M6570 5560 c0 -5 5 -10 10 -10 6 0 10 5 10 10 0 6 -4 10 -10 10 -5 0
-10 -4 -10 -10z"/>
<path d="M5172 5190 c-78 -28 -139 -66 -203 -127 -37 -36 -64 -53 -81 -53 -27
0 -77 -34 -67 -45 4 -3 27 -8 51 -11 24 -2 67 -11 94 -19 191 -60 347 -86 529
-89 100 -2 195 -14 195 -25 0 -4 23 -13 51 -19 28 -7 57 -19 65 -27 25 -24 34
-17 22 18 -6 17 -14 34 -17 37 -3 3 -19 31 -36 62 -16 32 -33 58 -36 58 -3 0
-11 11 -17 24 -19 43 -95 127 -130 145 -14 8 -55 12 -100 11 -43 -1 -82 -2
-87 -1 -6 1 -30 19 -54 41 -36 34 -49 40 -84 40 -23 -1 -66 -9 -95 -20z"/>
<path d="M6931 5024 c0 -11 3 -14 6 -6 3 7 2 16 -1 19 -3 4 -6 -2 -5 -13z"/>
<path d="M6900 5005 c0 -8 5 -15 10 -15 6 0 10 7 10 15 0 8 -4 15 -10 15 -5 0
-10 -7 -10 -15z"/>
<path d="M4048 4933 c-2 -38 -1 -77 3 -88 5 -11 8 19 8 68 1 48 -1 87 -3 87
-2 0 -6 -30 -8 -67z"/>
<path d="M6860 4915 c0 -5 5 -17 10 -25 5 -8 10 -10 10 -5 0 6 -5 17 -10 25
-5 8 -10 11 -10 5z"/>
<path d="M4020 4806 c0 -8 5 -18 10 -21 6 -3 10 3 10 14 0 12 -4 21 -10 21 -5
0 -10 -6 -10 -14z"/>
<path d="M6837 4813 c-4 -3 -7 -16 -7 -27 0 -12 -7 -33 -14 -48 -8 -16 -11
-28 -6 -28 13 0 26 29 33 73 6 38 5 42 -6 30z"/>
<path d="M4040 4739 c0 -5 5 -7 10 -4 6 3 10 8 10 11 0 2 -4 4 -10 4 -5 0 -10
-5 -10 -11z"/>
<path d="M4062 4675 c0 -16 2 -22 5 -12 2 9 2 23 0 30 -3 6 -5 -1 -5 -18z"/>
<path d="M6785 4669 c-4 -17 -9 -28 -13 -25 -3 3 -12 -3 -20 -15 -8 -11 -11
-23 -8 -26 10 -11 51 42 54 70 4 37 -5 34 -13 -4z"/>
<path d="M4080 4587 c0 -20 5 -39 11 -42 7 -5 8 5 3 32 -9 51 -14 54 -14 10z"/>
<path d="M6710 4591 c0 -5 5 -13 10 -16 6 -4 8 -11 5 -16 -3 -5 1 -6 9 -3 11
4 16 0 17 -12 0 -14 2 -15 6 -4 3 8 13 24 22 34 15 18 15 19 -8 13 -13 -3 -33
-2 -43 4 -12 6 -18 6 -18 0z"/>
<path d="M4091 4504 c0 -11 3 -14 6 -6 3 7 2 16 -1 19 -3 4 -6 -2 -5 -13z"/>
<path d="M4111 4485 c0 -35 1 -37 10 -17 6 15 5 30 -1 40 -7 13 -9 8 -9 -23z"/>
<path d="M4130 4446 c0 -8 -3 -23 -7 -33 -6 -16 -5 -16 10 -4 19 15 22 37 7
46 -5 3 -10 0 -10 -9z"/>
<path d="M6602 4400 c0 -19 2 -27 5 -17 2 9 2 25 0 35 -3 9 -5 1 -5 -18z"/>
<path d="M4083 4403 c-8 -3 -12 -20 -12 -41 2 -34 2 -35 6 -7 3 17 9 36 15 43
11 13 10 13 -9 5z"/>
<path d="M4160 4400 c0 -5 5 -10 11 -10 5 0 7 5 4 10 -3 6 -8 10 -11 10 -2 0
-4 -4 -4 -10z"/>
<path d="M4041 4384 c0 -11 3 -14 6 -6 3 7 2 16 -1 19 -3 4 -6 -2 -5 -13z"/>
<path d="M4182 4358 c-14 -14 -16 -28 -3 -28 5 0 11 9 14 20 6 23 5 24 -11 8z"/>
<path d="M4027 4344 c-4 -4 -7 -14 -7 -23 0 -11 3 -12 11 -4 6 6 10 16 7 23
-2 6 -7 8 -11 4z"/>
<path d="M4051 4334 c0 -11 3 -14 6 -6 3 7 2 16 -1 19 -3 4 -6 -2 -5 -13z"/>
<path d="M4240 4292 c0 -5 11 -14 25 -20 29 -14 34 2 6 18 -24 12 -31 13 -31
2z"/>
<path d="M4305 4250 c3 -5 13 -10 21 -10 8 0 12 5 9 10 -3 6 -13 10 -21 10 -8
0 -12 -4 -9 -10z"/>
<path d="M4390 4230 c8 -5 22 -9 30 -9 10 0 8 3 -5 9 -27 12 -43 12 -25 0z"/>
<path d="M4095 4211 c-3 -5 -1 -12 5 -16 5 -3 10 1 10 9 0 18 -6 21 -15 7z"/>
<path d="M4440 4211 c0 -5 -10 -12 -22 -14 -13 -3 -5 -4 16 -4 40 2 65 27 27
27 -12 0 -21 -4 -21 -9z"/>
<path d="M4545 4173 c-20 -15 -19 -15 5 -9 14 3 35 6 48 6 13 0 20 4 17 10 -9
15 -47 11 -70 -7z"/>
<path d="M4685 4160 c28 -5 66 -8 85 -8 28 1 25 2 -15 8 -27 5 -66 8 -85 8
-28 -1 -25 -2 15 -8z"/>
<path d="M4121 4146 c2 -2 18 -6 34 -10 22 -5 26 -4 15 4 -14 9 -59 15 -49 6z"/>
<path d="M4480 4140 c0 -5 7 -7 15 -4 8 4 15 8 15 10 0 2 -7 4 -15 4 -8 0 -15
-4 -15 -10z"/>
<path d="M4548 4143 c6 -2 18 -2 25 0 6 3 1 5 -13 5 -14 0 -19 -2 -12 -5z"/>
<path d="M4378 4123 c7 -3 16 -2 19 1 4 3 -2 6 -13 5 -11 0 -14 -3 -6 -6z"/>
<path d="M4780 4120 c36 -11 52 -11 45 0 -3 6 -21 10 -38 9 -31 -1 -31 -1 -7
-9z"/>
<path d="M4908 4123 c6 -2 18 -2 25 0 6 3 1 5 -13 5 -14 0 -19 -2 -12 -5z"/>
<path d="M4195 4110 c26 -11 45 -12 45 -2 0 4 -15 8 -33 9 -26 1 -28 0 -12 -7z"/>
<path d="M4550 4112 c21 -7 9 -22 -17 -23 -16 0 -37 -4 -48 -9 -13 -6 -3 -7
28 -3 30 4 47 2 47 -5 0 -6 -10 -13 -22 -15 -13 -2 -5 -2 17 0 50 5 71 23 30
24 -30 1 -30 1 5 11 73 21 75 25 13 24 -35 -1 -58 -2 -53 -4z"/>
<path d="M4955 4110 c3 -5 16 -10 28 -10 18 0 19 2 7 10 -20 13 -43 13 -35 0z"/>
<path d="M4280 4100 c0 -5 5 -10 11 -10 5 0 7 5 4 10 -3 6 -8 10 -11 10 -2 0
-4 -4 -4 -10z"/>
<path d="M4872 4100 c10 -6 42 -13 70 -15 48 -4 49 -3 13 4 -22 4 -53 11 -70
15 -24 6 -27 5 -13 -4z"/>
<path d="M4320 4089 c0 -11 43 -19 67 -13 37 10 26 19 -22 19 -25 0 -45 -3
-45 -6z"/>
<path d="M4708 4093 c7 -3 16 -2 19 1 4 3 -2 6 -13 5 -11 0 -14 -3 -6 -6z"/>
<path d="M4648 4083 c7 -3 16 -2 19 1 4 3 -2 6 -13 5 -11 0 -14 -3 -6 -6z"/>
<path d="M6515 4060 c-14 -28 -14 -32 0 -46 9 -9 19 -13 23 -10 3 4 1 11 -6
15 -17 10 3 58 27 64 10 3 8 5 -6 6 -16 1 -27 -8 -38 -29z"/>
<path d="M4435 4070 c-3 -5 -2 -10 4 -10 5 0 13 5 16 10 3 6 2 10 -4 10 -5 0
-13 -4 -16 -10z"/>
<path d="M4720 4070 c0 -5 6 -10 14 -10 8 0 18 5 21 10 3 6 -3 10 -14 10 -12
0 -21 -4 -21 -10z"/>
<path d="M4788 4073 c6 -2 10 -9 7 -14 -4 -5 1 -6 10 -2 13 5 14 7 3 14 -7 5
-17 8 -23 8 -5 0 -4 -3 3 -6z"/>
<path d="M4874 4072 c-9 -5 -9 -10 1 -19 7 -7 17 -8 26 -2 11 7 10 9 -6 9 -17
0 -17 2 -5 10 8 5 11 10 5 10 -5 0 -15 -4 -21 -8z"/>
<path d="M5070 4070 c0 -5 -6 -10 -14 -10 -8 0 -17 -4 -20 -9 -3 -4 6 -6 19
-3 14 2 25 11 25 18 0 8 -2 14 -5 14 -3 0 -5 -4 -5 -10z"/>
<path d="M4993 4063 c9 -2 23 -2 30 0 6 3 -1 5 -18 5 -16 0 -22 -2 -12 -5z"/>
<path d="M4630 4050 c8 -5 24 -10 34 -10 26 0 18 6 -19 14 -22 5 -26 4 -15 -4z"/>
<path d="M4980 4030 c0 -5 7 -10 16 -10 8 0 12 5 9 10 -3 6 -10 10 -16 10 -5
0 -9 -4 -9 -10z"/>
<path d="M5635 3952 c-51 -13 -140 -18 -192 -10 -15 3 -22 3 -15 1 6 -3 12
-10 12 -17 0 -18 30 -42 64 -50 24 -6 26 -5 15 6 -8 7 -27 19 -43 26 -33 15
-30 27 4 14 13 -5 43 -4 69 1 75 15 135 14 148 -3 11 -13 12 -13 13 3 0 9 -4
17 -9 17 -5 0 -11 6 -13 13 -2 10 -13 10 -53 -1z m42 -8 c-3 -3 -12 -4 -19 -1
-8 3 -5 6 6 6 11 1 17 -2 13 -5z"/>
<path d="M5720 3962 c0 -4 9 -15 20 -25 11 -9 17 -23 14 -32 -4 -8 -1 -15 6
-15 8 0 10 9 6 26 -9 35 -46 72 -46 46z"/>
<path d="M6465 3910 c3 -5 8 -10 11 -10 2 0 4 5 4 10 0 6 -5 10 -11 10 -5 0
-7 -4 -4 -10z"/>
<path d="M6335 3863 c-11 -8 -19 -18 -18 -23 1 -4 -4 -14 -12 -20 -8 -7 -15
-17 -15 -23 0 -5 9 0 20 13 11 12 17 26 15 31 -3 4 7 7 21 6 15 -1 29 3 31 9
6 19 -21 23 -42 7z"/>
<path d="M5771 3854 c0 -11 3 -14 6 -6 3 7 2 16 -1 19 -3 4 -6 -2 -5 -13z"/>
<path d="M5830 3802 c0 -10 27 -42 36 -42 8 0 4 7 -16 30 -11 13 -20 18 -20
12z"/>
<path d="M6230 3789 c0 -5 5 -7 10 -4 6 3 10 8 10 11 0 2 -4 4 -10 4 -5 0 -10
-5 -10 -11z"/>
<path d="M6120 3744 l-45 -14 39 5 c22 2 44 9 50 15 12 12 14 12 -44 -6z"/>
<path d="M6130 1010 c0 -5 6 -10 13 -10 7 0 28 -12 45 -26 28 -24 32 -33 32
-75 0 -27 -3 -49 -8 -49 -4 0 -13 -14 -21 -31 -10 -22 -27 -37 -62 -51 -28
-12 -49 -27 -49 -36 0 -10 4 -12 13 -4 6 5 26 13 43 16 54 12 114 98 114 164
0 36 -15 58 -64 100 -18 14 -56 16 -56 2z"/>
<path d="M3981 624 c0 -11 3 -14 6 -6 3 7 2 16 -1 19 -3 4 -6 -2 -5 -13z"/>
<path d="M5934 452 c9 -11 29 -23 44 -27 55 -14 75 -84 38 -136 -14 -22 -41
-39 -87 -57 -36 -14 -66 -31 -66 -39 0 -17 22 -17 39 0 7 8 28 17 46 20 76 15
124 90 107 166 -7 34 -56 72 -110 85 -29 7 -29 7 -11 -12z"/>
<path d="M3095 340 c3 -5 43 -10 88 -10 166 -1 240 -33 278 -121 25 -58 81
-99 192 -143 74 -30 35 4 -53 45 -76 36 -91 47 -105 78 -9 20 -20 44 -26 54
-6 12 -6 17 3 18 7 0 3 4 -10 10 -15 5 -21 13 -16 21 4 7 4 10 -1 6 -4 -4 -14
-3 -21 3 -37 31 -121 49 -227 49 -70 0 -106 -4 -102 -10z"/>
<path d="M3630 150 c0 -6 15 -19 33 -30 17 -10 37 -23 42 -27 6 -5 30 -21 54
-35 26 -16 38 -28 30 -31 -8 -2 -4 -3 7 -1 12 2 27 -3 34 -11 7 -8 23 -15 37
-15 22 0 23 2 9 15 -8 8 -17 15 -21 15 -9 0 -90 54 -93 63 -2 4 -8 7 -14 7 -6
0 -33 14 -60 30 -53 33 -58 35 -58 20z"/>
<path d="M4463 139 c-7 -7 -13 -24 -13 -38 -1 -29 -13 -47 -54 -79 -29 -22
-21 -27 22 -16 12 4 22 13 22 20 0 8 4 14 9 14 14 0 33 55 29 85 -2 21 -5 24
-15 14z"/>
</g>
</svg>
